<?xml version="1.0" standalone="no"?><!DOCTYPE svg PUBLIC "-//W3C//DTD SVG 1.1//EN" "http://www.w3.org/Graphics/SVG/1.1/DTD/svg11.dtd"><svg t="1629468042293" class="icon" viewBox="0 0 1024 1024" version="1.1" xmlns="http://www.w3.org/2000/svg" p-id="3405" width="48" height="48" xmlns:xlink="http://www.w3.org/1999/xlink"><defs><style type="text/css"></style></defs><path d="M634.784 288c120.832 0 218.784 97.952 218.784 218.784s-97.952 218.784-218.784 218.784h-256C257.952 725.568 160 627.616 160 506.784S257.952 288 378.784 288h256z m0 48h-256C284.464 336 208 412.464 208 506.784s76.464 170.784 170.784 170.784h256c94.32 0 170.784-76.464 170.784-170.784S729.104 336 634.784 336z m-274.112 85.856c12.96 0 24.48 1.376 34.56 4.096 10.08 2.736 18.512 7.552 25.344 14.464 6.832 6.912 12 16.256 15.488 28.032 3.504 11.776 5.248 26.72 5.248 44.8 0 18.096-1.76 33.024-5.248 44.8-3.504 11.776-8.656 21.12-15.488 28.032a55.136 55.136 0 0 1-25.344 14.464c-10.08 2.736-21.6 4.096-34.56 4.096-12.8 0-24.24-1.36-34.304-4.096a55.136 55.136 0 0 1-25.344-14.464c-6.832-6.912-12.032-16.256-15.616-28.032-3.584-11.776-5.376-26.704-5.376-44.8 0-18.08 1.792-33.024 5.376-44.8 3.584-11.776 8.8-21.12 15.616-28.032a55.136 55.136 0 0 1 25.344-14.464c10.08-2.72 21.504-4.096 34.304-4.096z m212.8 2.56a11.2 11.2 0 0 1 11.2 11.2v11.392a11.2 11.2 0 0 1-11.2 11.2H515.04v41.216h53.312a11.2 11.2 0 0 1 11.2 11.2v11.136a11.2 11.2 0 0 1-11.2 11.2H515.04v57.92a11.2 11.2 0 0 1-11.2 11.2h-16.512a11.2 11.2 0 0 1-11.2-11.2v-155.264a11.2 11.2 0 0 1 11.2-11.2h86.144z m137.984 0a11.2 11.2 0 0 1 11.2 11.2v11.392a11.2 11.2 0 0 1-11.2 11.2h-58.432v41.216h53.312a11.2 11.2 0 0 1 11.2 11.2v11.136a11.2 11.2 0 0 1-11.2 11.2h-53.312v57.92a11.2 11.2 0 0 1-11.2 11.2h-16.512a11.2 11.2 0 0 1-11.2-11.2v-155.264a11.2 11.2 0 0 1 11.2-11.2h86.144zM360.672 453.6c-8.192 0-14.848 1.072-19.968 3.2-5.12 2.144-9.12 5.6-12.032 10.368-2.896 4.8-4.912 10.976-6.016 18.56a194.08 194.08 0 0 0-1.664 27.52c0 10.928 0.56 20.16 1.664 27.648 1.12 7.52 3.12 13.568 6.016 18.176 2.896 4.608 6.912 7.936 12.032 9.984s11.776 3.072 19.968 3.072 14.88-1.024 20.096-3.072a24.64 24.64 0 0 0 12.16-9.984c2.896-4.608 4.912-10.656 6.016-18.176 1.12-7.504 1.664-16.72 1.664-27.648 0-10.752-0.56-19.92-1.664-27.52-1.12-7.584-3.12-13.76-6.016-18.56a24.928 24.928 0 0 0-12.16-10.368c-5.2-2.128-11.904-3.2-20.096-3.2z" p-id="3406" fill="#333333"></path></svg>