<?xml version="1.0" standalone="no"?><!DOCTYPE svg PUBLIC "-//W3C//DTD SVG 1.1//EN" "http://www.w3.org/Graphics/SVG/1.1/DTD/svg11.dtd"><svg t="1629468148468" class="icon" viewBox="0 0 1024 1024" version="1.1" xmlns="http://www.w3.org/2000/svg" p-id="9989" width="48" height="48" xmlns:xlink="http://www.w3.org/1999/xlink"><defs><style type="text/css"></style></defs><path d="M267.168 454.624v316.48h152V598.224c0-6.144 4.992-11.12 11.136-11.12h169.728c6.16 0 11.136 4.976 11.136 11.12v172.88h136V453.6l-239.36-188.848-240.64 189.856z m-48 37.872l-39.36 31.04a16 16 0 0 1-22.464-2.656l-9.904-12.56a16 16 0 0 1 2.656-22.464l347.792-274.416a16 16 0 0 1 19.84 0l347.792 274.4a16 16 0 0 1 2.656 22.48l-9.92 12.56a16 16 0 0 1-22.464 2.656l-40.624-32.048v292.48a35.136 35.136 0 0 1-35.136 35.136H254.304a35.136 35.136 0 0 1-35.136-35.136V492.496z m248 270.608h96v-128h-96v128z" p-id="9990" fill="#2A954F"></path></svg>