<?xml version="1.0" standalone="no"?><!DOCTYPE svg PUBLIC "-//W3C//DTD SVG 1.1//EN" "http://www.w3.org/Graphics/SVG/1.1/DTD/svg11.dtd"><svg t="1630305695821" class="icon" viewBox="0 0 1024 1024" version="1.1" xmlns="http://www.w3.org/2000/svg" p-id="1928" xmlns:xlink="http://www.w3.org/1999/xlink" width="128" height="128"><defs><style type="text/css"></style></defs><path d="M512 512m-403.2 0a403.2 403.2 0 1 0 806.4 0 403.2 403.2 0 1 0-806.4 0Z" fill="#F9D65D" p-id="1929"></path><path d="M512 608c-19.2 0-38.4-19.2-38.4-38.4V288c0-19.2 19.2-38.4 38.4-38.4s38.4 19.2 38.4 38.4V576c0 12.8-19.2 32-38.4 32z" fill="#FFFFFF" p-id="1930"></path><path d="M512 736m-44.8 0a44.8 44.8 0 1 0 89.6 0 44.8 44.8 0 1 0-89.6 0Z" fill="#FFFFFF" p-id="1931"></path></svg>