<?xml version="1.0" standalone="no"?><!DOCTYPE svg PUBLIC "-//W3C//DTD SVG 1.1//EN" "http://www.w3.org/Graphics/SVG/1.1/DTD/svg11.dtd"><svg t="1556260590892" class="icon" style="" viewBox="0 0 1024 1024" version="1.1" xmlns="http://www.w3.org/2000/svg" p-id="3389" xmlns:xlink="http://www.w3.org/1999/xlink" width="400" height="400"><defs><style type="text/css"></style></defs><path d="M512 198.4c-156.8 0-281.6 128-281.6 281.6 0 96 48 185.6 131.2 240 9.6 6.4 16 19.2 16 28.8v118.4h121.6v-192l-102.4-102.4c-3.2-6.4-6.4-12.8 0-19.2 3.2-3.2 6.4-3.2 9.6-3.2s6.4 0 9.6 3.2l99.2 96 99.2-96c3.2-3.2 6.4-3.2 9.6-3.2 3.2 0 6.4 0 9.6 3.2 3.2 6.4 3.2 12.8 0 19.2l-102.4 102.4v192h121.6v-118.4c0-12.8 6.4-22.4 16-28.8 83.2-51.2 131.2-140.8 131.2-240-6.4-153.6-131.2-281.6-288-281.6z" fill="#FFD066" p-id="3390"></path><path d="M438.4 1024c-9.6 0-16-6.4-16-16s6.4-16 16-16h147.2c9.6 0 16 6.4 16 16s-6.4 16-16 16h-147.2z m-51.2-128c-19.2 0-38.4-16-38.4-38.4v-115.2h-3.2C256 684.8 201.6 588.8 201.6 480c0-172.8 140.8-310.4 310.4-310.4 172.8 0 310.4 140.8 313.6 310.4 0 108.8-54.4 204.8-144 262.4h-3.2v112c0 19.2-16 38.4-38.4 38.4h-252.8z m233.6-345.6c3.2 0 9.6 0 9.6 3.2 6.4 6.4 6.4 16 0 22.4l-102.4 102.4V864h115.2v-115.2c0-12.8 6.4-25.6 16-32 83.2-51.2 131.2-140.8 131.2-236.8 0-153.6-124.8-278.4-278.4-278.4S233.6 326.4 233.6 480c0 96 48 185.6 131.2 236.8 12.8 6.4 19.2 19.2 19.2 32V864h115.2v-188.8L393.6 576c-6.4-6.4-6.4-16 0-22.4 3.2-3.2 6.4-3.2 9.6-3.2 3.2 0 9.6 0 9.6 3.2l96 96 96-96c6.4-3.2 9.6-3.2 16-3.2z m217.6 262.4c-3.2 0-9.6-3.2-12.8-3.2L787.2 768c-6.4-6.4-6.4-16 0-22.4 3.2-3.2 6.4-3.2 12.8-3.2 3.2 0 9.6 3.2 12.8 3.2l41.6 41.6c6.4 6.4 6.4 16 0 22.4-6.4 3.2-9.6 3.2-16 3.2z m-656 0c-3.2 0-9.6-3.2-12.8-3.2-6.4-6.4-6.4-16 0-22.4l41.6-41.6c3.2-3.2 9.6-6.4 12.8-6.4 3.2 0 6.4 3.2 9.6 3.2 6.4 6.4 6.4 16 0 22.4L192 806.4c0 6.4-3.2 6.4-9.6 6.4z m710.4-326.4c-9.6 0-16-6.4-16-16s6.4-16 16-16h83.2c9.6 0 16 6.4 16 16s-6.4 16-16 16h-83.2z m-844.8 0c-9.6 0-16-6.4-16-16s6.4-16 16-16h83.2c9.6 0 16 6.4 16 16s-6.4 16-16 16H48z m748.8-284.8c-3.2 0-9.6-3.2-12.8-3.2-6.4-6.4-6.4-16 0-22.4l41.6-41.6c3.2-6.4 9.6-6.4 12.8-6.4 3.2 0 9.6 3.2 12.8 3.2 6.4 6.4 6.4 16 0 22.4l-41.6 41.6c-3.2 3.2-6.4 6.4-12.8 6.4z m-569.6 0c-3.2 0-9.6-3.2-12.8-3.2-28.8-32-38.4-41.6-41.6-44.8-6.4-6.4-6.4-16 0-22.4 3.2-3.2 6.4-3.2 12.8-3.2 3.2 0 6.4 0 9.6 3.2l41.6 41.6c6.4 6.4 6.4 16 0 22.4-3.2 3.2-6.4 6.4-9.6 6.4zM512 115.2c-9.6 0-16-6.4-16-16V16c0-9.6 6.4-16 16-16s16 6.4 16 16v83.2c0 9.6-6.4 16-16 16z" fill="#422A15" p-id="3391"></path><path d="M313.6 470.4h-6.4c-12.8-3.2-19.2-16-16-25.6 19.2-67.2 60.8-124.8 118.4-163.2 3.2-3.2 6.4-3.2 12.8-3.2s12.8 3.2 16 9.6c3.2 6.4 3.2 9.6 3.2 16s-3.2 9.6-9.6 12.8c-48 32-86.4 83.2-102.4 140.8 0 6.4-6.4 12.8-16 12.8z" fill="#FFFFFF" p-id="3392"></path><path d="M406.4 960c-9.6 0-16-6.4-16-16s6.4-16 16-16h211.2c9.6 0 16 6.4 16 16s-6.4 16-16 16h-211.2z" fill="#422A15" p-id="3393"></path></svg>