<?xml version="1.0" standalone="no"?><!DOCTYPE svg PUBLIC "-//W3C//DTD SVG 1.1//EN" "http://www.w3.org/Graphics/SVG/1.1/DTD/svg11.dtd"><svg t="1630305687746" class="icon" viewBox="0 0 1024 1024" version="1.1" xmlns="http://www.w3.org/2000/svg" p-id="1773" xmlns:xlink="http://www.w3.org/1999/xlink" width="128" height="128"><defs><style type="text/css"></style></defs><path d="M512 524.8m-416 0a416 416 0 1 0 832 0 416 416 0 1 0-832 0Z" fill="#5B8FD9" p-id="1774"></path><path d="M512 435.2c-19.2 0-38.4 19.2-38.4 38.4V768c0 19.2 19.2 38.4 38.4 38.4s38.4-19.2 38.4-38.4V473.6c0-19.2-19.2-38.4-38.4-38.4z" fill="#FFFFFF" p-id="1775"></path><path d="M512 300.8m-51.2 0a51.2 51.2 0 1 0 102.4 0 51.2 51.2 0 1 0-102.4 0Z" fill="#FFFFFF" p-id="1776"></path></svg>