<?xml version="1.0" standalone="no"?><!DOCTYPE svg PUBLIC "-//W3C//DTD SVG 1.1//EN" "http://www.w3.org/Graphics/SVG/1.1/DTD/svg11.dtd"><svg t="1630375094162" class="icon" viewBox="0 0 1024 1024" version="1.1" xmlns="http://www.w3.org/2000/svg" p-id="2726" xmlns:xlink="http://www.w3.org/1999/xlink" width="128" height="128"><defs><style type="text/css"></style></defs><path d="M512 76.8c-236.8 0-435.2 192-435.2 435.2s192 435.2 435.2 435.2 435.2-192 435.2-435.2S748.8 76.8 512 76.8z m249.6 320L480 704c-12.8 12.8-38.4 12.8-51.2 0L288 556.8c-12.8-12.8-12.8-38.4 0-51.2 12.8-12.8 38.4-12.8 51.2 0l115.2 115.2L704 339.2c12.8-12.8 38.4-12.8 51.2 0 25.6 12.8 25.6 38.4 6.4 57.6z" fill="#16b666" p-id="2727" data-spm-anchor-id="a313x.7781069.0.i5" class="selected"></path><path d="M710.4 339.2l-256 281.6-115.2-115.2c-12.8-12.8-38.4-12.8-51.2 0-12.8 12.8-12.8 38.4 0 51.2l147.2 140.8c12.8 12.8 38.4 12.8 51.2 0L768 390.4c12.8-12.8 12.8-38.4 0-51.2-19.2-12.8-44.8-12.8-57.6 0z" fill="#FFFFFF" p-id="2728" data-spm-anchor-id="a313x.7781069.0.i6" class=""></path></svg>