<svg width="200" height="200" viewBox="0 0 200 200" fill="none" xmlns="http://www.w3.org/2000/svg">
<g clip-path="url(#clip0)">
<path opacity="0.6" d="M105.293 133.984L104.863 140.82C104.766 142.363 105.332 143.867 106.426 144.941L107.422 145.762C113.477 150.703 118.985 156.27 123.867 162.363H83.4963C88.3791 156.27 93.8869 150.703 99.9416 145.762L100.938 144.941C102.012 143.867 102.598 142.363 102.5 140.82L102.07 133.984L99.9807 100H97.2267C96.7971 95.1172 93.008 90.7031 87.0314 87.4023C86.8752 87.2852 86.6799 87.207 86.5236 87.1094C86.465 87.0898 86.426 87.0508 86.3674 87.0312C76.4064 81.3281 68.34 70.8789 63.7697 57.793L82.8517 59.2773C83.8088 59.375 84.7853 59.4336 85.7228 59.4336C88.9064 59.5703 90.84 59.6094 95.2736 59.0039C107.891 56.2305 116.543 54.1016 133.711 56.8164C133.887 56.8359 139.785 58.1055 142.227 59.6094C137.656 72.6953 130.977 81.2891 121.016 87.0117C120.957 87.0312 120.918 87.0703 120.86 87.0898C120.703 87.1875 120.508 87.2656 120.352 87.3828C114.356 90.7031 110.547 95.1172 110.137 100H107.383L105.293 133.984Z" fill="#F5BB1D"/>
<path d="M155.957 162.383H150.195C148.457 140.313 137.93 121.328 122.344 112.422L122.031 112.266L121.641 112.051C115.977 108.906 112.832 104.961 112.832 100.938C112.832 96.8945 115.977 92.9492 121.641 89.8242L122.363 89.4336C138.242 80.3711 149.043 60.2148 150.313 37.6367H155.957C157.481 37.6367 158.711 36.4063 158.711 34.8828C158.711 33.3594 157.481 32.1289 155.957 32.1289H51.3869C49.8635 32.1289 48.633 33.3594 48.633 34.8828C48.633 36.4063 49.8635 37.6367 51.3869 37.6367H57.0314C58.301 60.2148 69.1017 80.3711 84.9807 89.4336L85.3127 89.5898L85.7033 89.8047C91.3674 92.9492 94.5119 96.8945 94.5119 100.918C94.5119 104.961 91.3674 108.906 85.7033 112.031L85.0002 112.422C69.3947 121.328 58.8869 140.313 57.1486 162.383H51.3869C49.8635 162.383 48.633 163.613 48.633 165.137C48.633 166.66 49.8635 167.891 51.3869 167.891H155.977C157.5 167.891 158.731 166.66 158.731 165.137C158.711 163.613 157.481 162.383 155.957 162.383ZM62.6564 162.383C64.3361 142.656 73.926 125.195 87.5197 117.305L87.9103 117.109C88.0666 117.012 88.2619 116.934 88.4181 116.816C95.8986 112.656 100 107.031 100 100.918C100 94.8047 95.8986 89.1797 88.4181 85.0195C88.2619 84.9023 88.0471 84.8242 87.8127 84.668L87.4611 84.4922C73.3791 76.2891 63.7697 58.125 62.5197 37.6172H144.785C143.535 58.1445 133.926 76.3281 119.785 84.5312L119.395 84.7266C119.238 84.8242 119.043 84.9023 118.887 85.0195C111.426 89.1602 107.305 94.8047 107.305 100.918C107.305 107.031 111.406 112.656 118.887 116.816C119.043 116.934 119.258 117.012 119.492 117.168L119.844 117.344C133.418 125.234 142.969 142.676 144.649 162.383H62.6564ZM36.9924 124.766C33.4963 124.766 30.6447 121.914 30.6447 118.418C30.6447 114.922 33.4963 112.07 36.9924 112.07C40.4885 112.07 43.34 114.922 43.34 118.418C43.34 121.914 40.4885 124.766 36.9924 124.766ZM36.9924 113.887C34.4924 113.887 32.4611 115.918 32.4611 118.418C32.4611 120.918 34.4924 122.93 36.9924 122.93C39.4924 122.93 41.5041 120.898 41.5041 118.418C41.5041 115.918 39.4728 113.887 36.9924 113.887Z" fill="#F5BB1D"/>
<path d="M163.399 108.711C158.867 108.711 155.176 105.02 155.176 100.488C155.176 95.957 158.867 92.2656 163.399 92.2656C167.93 92.2656 171.621 95.957 171.621 100.488C171.621 105.02 167.93 108.711 163.399 108.711ZM163.399 94.1016C159.883 94.1016 157.012 96.9727 157.012 100.488C157.012 104.004 159.883 106.875 163.399 106.875C166.914 106.875 169.785 104.004 169.785 100.488C169.785 96.9727 166.914 94.1016 163.399 94.1016Z" fill="#F5BB1D"/>
<path opacity="0.6" d="M33.1838 49.1406C33.1838 49.6793 33.3978 50.196 33.7787 50.5769C34.1596 50.9579 34.6763 51.1719 35.215 51.1719C35.7537 51.1719 36.2704 50.9579 36.6513 50.5769C37.0323 50.196 37.2463 49.6793 37.2463 49.1406C37.2463 48.6019 37.0323 48.0852 36.6513 47.7043C36.2704 47.3234 35.7537 47.1094 35.215 47.1094C34.6763 47.1094 34.1596 47.3234 33.7787 47.7043C33.3978 48.0852 33.1838 48.6019 33.1838 49.1406Z" fill="#F5BB1D"/>
<path opacity="0.6" d="M173.926 73.9648C173.926 74.4466 174.117 74.9086 174.458 75.2492C174.799 75.5899 175.261 75.7813 175.742 75.7813C176.224 75.7813 176.686 75.5899 177.027 75.2492C177.367 74.9086 177.559 74.4466 177.559 73.9648C177.559 73.4831 177.367 73.0211 177.027 72.6805C176.686 72.3398 176.224 72.1484 175.742 72.1484C175.261 72.1484 174.799 72.3398 174.458 72.6805C174.117 73.0211 173.926 73.4831 173.926 73.9648Z" fill="#F5BB1D"/>
<path opacity="0.6" d="M6.67987 103.262C6.67987 103.528 6.73241 103.793 6.83449 104.039C6.93657 104.285 7.08619 104.509 7.27481 104.698C7.46343 104.887 7.68735 105.036 7.9338 105.138C8.18024 105.24 8.44437 105.293 8.71112 105.293C8.97787 105.293 9.242 105.24 9.48845 105.138C9.73489 105.036 9.95881 104.887 10.1474 104.698C10.3361 104.509 10.4857 104.285 10.5878 104.039C10.6898 103.793 10.7424 103.528 10.7424 103.262C10.7424 102.995 10.6898 102.731 10.5878 102.484C10.4857 102.238 10.3361 102.014 10.1474 101.825C9.95881 101.637 9.73489 101.487 9.48845 101.385C9.242 101.283 8.97787 101.23 8.71112 101.23C8.44437 101.23 8.18024 101.283 7.9338 101.385C7.68735 101.487 7.46343 101.637 7.27481 101.825C7.08619 102.014 6.93657 102.238 6.83449 102.484C6.73241 102.731 6.67987 102.995 6.67987 103.262Z" fill="#F5BB1D"/>
<path d="M199.082 127.617H196.778C196.27 127.617 195.86 127.207 195.86 126.699C195.86 126.191 196.27 125.781 196.778 125.781H199.082C199.59 125.781 200 126.191 200 126.699C200 127.207 199.59 127.617 199.082 127.617ZM184.024 127.617H181.719C181.211 127.617 180.801 127.207 180.801 126.699C180.801 126.191 181.211 125.781 181.719 125.781H184.024C184.531 125.781 184.942 126.191 184.942 126.699C184.942 127.207 184.531 127.617 184.024 127.617ZM195.82 123.828C195.528 123.828 195.254 123.691 195.059 123.438C194.766 123.027 194.863 122.441 195.293 122.168L196.992 120.996C197.403 120.703 197.988 120.801 198.262 121.23C198.555 121.641 198.457 122.227 198.028 122.5L196.328 123.672C196.192 123.77 195.996 123.828 195.82 123.828ZM183.281 132.617C182.988 132.617 182.715 132.48 182.539 132.227C182.246 131.816 182.344 131.23 182.754 130.957L184.824 129.512C185.235 129.219 185.82 129.316 186.094 129.727C186.387 130.137 186.289 130.723 185.879 130.996L183.809 132.441C183.653 132.559 183.457 132.617 183.281 132.617ZM192.715 121.25C192.617 121.25 192.5 121.23 192.403 121.191C191.934 121.016 191.68 120.488 191.856 120.02L192.5 118.223C192.676 117.754 193.203 117.5 193.672 117.676C194.141 117.852 194.395 118.379 194.219 118.848L193.574 120.645C193.438 121.016 193.086 121.25 192.715 121.25ZM187.422 135.781C187.324 135.781 187.207 135.762 187.11 135.723C186.641 135.547 186.387 135.02 186.563 134.551L187.481 132.031C187.656 131.563 188.184 131.309 188.653 131.484C189.121 131.66 189.375 132.188 189.199 132.656L188.281 135.176C188.145 135.566 187.793 135.781 187.422 135.781ZM188.633 121.055C188.223 121.055 187.852 120.781 187.754 120.371L187.266 118.535C187.129 118.047 187.422 117.539 187.91 117.402C188.399 117.266 188.906 117.559 189.043 118.047L189.531 119.883C189.668 120.371 189.375 120.879 188.887 121.016C188.809 121.055 188.711 121.055 188.633 121.055ZM192.637 136.016C192.227 136.016 191.856 135.742 191.758 135.332L191.055 132.734C190.918 132.246 191.211 131.738 191.699 131.602C192.188 131.484 192.695 131.758 192.832 132.246L193.535 134.844C193.672 135.332 193.379 135.84 192.891 135.977C192.793 136.016 192.715 136.016 192.637 136.016ZM185.313 123.34C185.098 123.34 184.903 123.262 184.727 123.125L183.164 121.816C182.774 121.484 182.715 120.918 183.047 120.527C183.379 120.137 183.965 120.078 184.336 120.41L185.899 121.719C186.289 122.051 186.348 122.617 186.016 123.008C185.82 123.242 185.567 123.34 185.313 123.34ZM197.051 133.203C196.836 133.203 196.641 133.125 196.465 132.988L194.492 131.328C194.102 130.996 194.063 130.43 194.375 130.039C194.707 129.648 195.274 129.609 195.664 129.922L197.637 131.582C198.028 131.914 198.067 132.48 197.754 132.871C197.578 133.105 197.305 133.203 197.051 133.203Z" fill="#F5BB1D"/>
<path d="M16.4064 74.8828C16.2306 75.1367 15.9572 75.2539 15.6642 75.2539C15.4689 75.2539 15.2931 75.1953 15.1174 75.0781L8.49626 70.2148L3.63298 76.8359C3.4572 77.0898 3.16423 77.207 2.89079 77.207C2.69548 77.207 2.5197 77.1484 2.34392 77.0312C1.93376 76.7383 1.85564 76.1523 2.14861 75.7422L7.01189 69.1406L0.371262 64.2773C-0.0388947 63.9844 -0.11702 63.3984 0.175949 62.9883C0.468918 62.5781 1.05486 62.5 1.46501 62.793L8.10564 67.6562L12.9689 61.0156C13.2619 60.6055 13.8478 60.5273 14.258 60.8203C14.6681 61.1133 14.7463 61.6992 14.4533 62.1094L9.59001 68.75L16.2306 73.6133C16.6213 73.8867 16.6994 74.4726 16.4064 74.8828Z" fill="#F5BB1D"/>
</g>
<defs>
<clipPath id="clip0">
<rect width="200" height="200" fill="white"/>
</clipPath>
</defs>
</svg>
