<?xml version="1.0" encoding="UTF-8"?>
<svg width="815px" height="510px" viewBox="0 0 815 510" version="1.1" xmlns="http://www.w3.org/2000/svg" xmlns:xlink="http://www.w3.org/1999/xlink">
    <!-- Generator: Sketch 54 (76480) - https://sketchapp.com -->
    <title>未命名</title>
    <desc>Created with Sketch.</desc>
    <g id="页面1" stroke="none" stroke-width="1" fill="none" fill-rule="evenodd">
        <g id="403-彩色-01" transform="translate(0.000000, 1.000000)">
            <g id="图层_2">
                <ellipse id="椭圆形" fill="#E9F2FB" fill-rule="nonzero" cx="445.8" cy="311.6" rx="335.6" ry="196.9"></ellipse>
                <g id="XMLID_1_" transform="translate(189.000000, 4.000000)" fill-rule="nonzero">
                    <g id="编组">
                        <path d="M535.7,275.8 L500.1,316.6 L465.5,316.4 L465.5,315.2 L501.8,275.4 L532.7,275.4 C533.8,275.4 534.8,275.5 535.7,275.8 Z" id="路径" fill="#EE706D"></path>
                        <polygon id="路径" fill="#EE706D" points="460.7 275.4 444.1 293.1 444.1 275.4"></polygon>
                        <path d="M446.7,168.5 L446.7,198.7 C446.7,201.8 444.2,204.4 441,204.4 L428.3,204.4 L419.7,204.4 L227.7,204.4 L217.7,204.4 C214.6,204.4 212,201.9 212,198.7 L212,168.5 C212,165.4 214.5,162.8 217.7,162.8 L441,162.8 C444.2,162.8 446.7,165.4 446.7,168.5 Z" id="路径" fill="#FED280"></path>
                        <path d="M444.1,316.2 L444.1,366.7 C444.1,374.2 438.7,380.6 431.6,382 L415.7,382 C416.9,379.8 417.9,377.9 418.6,376.3 C420.5,372.4 421.4,368.2 421.5,363.9 C421.6,355.4 421.7,337 421.8,316 L423,316 L444.1,316.2 Z" id="路径" fill="#99C592"></path>
                        <path d="M444.1,220.1 L444.1,275.4 L422.9,275.4 L422.1,275.4 C422.3,250.9 422.6,229.5 422.9,223.2 C423.7,206.1 419.8,204.4 419.8,204.4 L428.4,204.4 C437,204.4 444.1,211.5 444.1,220.1 Z" id="路径" fill="#99C592"></path>
                        <path d="M421.7,316 C421.8,303.1 421.9,289.2 422.1,276.2 L422.9,275.4 L444.1,275.4 L444.1,293.1 L422.9,315.8 L422.9,316.1 L421.7,316 Z" id="路径" fill="#EE706D"></path>
                        <path d="M383.8,315.7 L422.1,276.1 C422,289.1 421.9,303 421.7,315.9 L383.8,315.7 Z" id="路径" fill="#EE706D"></path>
                        <polygon id="路径" fill="#EE706D" points="377.6 275.4 338.8 314.8 338.8 315.4 302.1 315.2 343 275.4"></polygon>
                        <path d="M383.8,315.7 L421.7,316 C421.6,336.9 421.5,355.4 421.4,363.9 C421.4,368.2 420.4,372.4 418.5,376.3 C417.8,377.9 416.8,379.8 415.6,382 L224.6,382 C217.5,380.5 212.1,374.2 212.1,366.7 L212.1,343.7 L212.1,329.9 L212.1,314.6 L222.2,314.7 L256.5,314.9 L256.5,314.9 L302.2,315.2 L338.9,315.5 L383.8,315.7 Z" id="路径" fill="#B0D7A1"></path>
                        <polygon id="路径" fill="#EE706D" points="299.3 275.4 256.4 314.8 256.4 314.8 222.1 314.6 264.4 275.4"></polygon>
                        <path d="M264.4,275.4 L216.3,275.4 L212.1,275.4 L212.1,220.1 C212.1,211.5 219.2,204.4 227.8,204.4 L419.8,204.4 C419.8,204.4 423.7,206.1 422.9,223.2 C422.6,229.5 422.3,250.8 422.1,275.4 L377.6,275.4 L343,275.4 L299.4,275.4 L264.4,275.4 Z M224.4,253.9 L229.6,253.9 C230.4,253.9 231.1,253.2 231.1,252.4 L231.1,222.3 C231.1,221.5 230.4,220.9 229.6,220.9 L224.4,220.9 C223.6,220.9 223,221.5 223,222.3 L223,252.4 C223,253.2 223.6,253.9 224.4,253.9 Z M227.3,267.2 C229.7,267.2 231.6,265.3 231.6,262.9 C231.6,260.5 229.7,258.6 227.3,258.6 C224.9,258.6 223,260.5 223,262.9 C223,265.2 224.9,267.2 227.3,267.2 Z" id="形状" fill="#B0D7A1"></path>
                        <polygon id="路径" fill="#EE706D" points="212.1 275.4 212.1 279.6 178.4 314.3 141.5 314 141.5 313.7 178.4 275.4"></polygon>
                        <path d="M197.7,73.7 C210,91 193.2,84.4 193.2,84.4 L168.7,71.9 L183.8,58.6 L197.7,73.7 Z" id="路径" fill="#DFDFDF"></path>
                        <path d="M129.8,4 L183.9,58.7 L168.8,72 L163.7,76.5 C159.7,80 153.6,79.9 149.7,76.2 L131.3,58.7 L115.4,43.2 L95.2,23.4 L95.8,22.8 L115.3,3.8 C119.3,-0.1 125.8,-0.1 129.8,4 Z" id="路径" fill="#DFDFDF"></path>
                        <path d="M132.7,355.7 C132.7,355.7 152.6,358.9 150.3,382 L0.3,382 C0.3,382 -2.5,359.8 21.8,355.7 L46,355.7 L61.2,355.7 L95.8,355.7 L113.8,355.7 L132.7,355.7 Z" id="路径" fill="#F0F3F8"></path>
                        <polygon id="路径" fill="#EE706D" points="135 275.4 113.8 296.1 113.8 275.4"></polygon>
                        <path d="M121.6,76.2 C119.8,78.9 116.2,79.5 113.7,77.6 L113.7,60.2 L115.2,58.6 L121.1,64.3 C122,65.1 122.6,66.1 123,67.2 C124.1,69.7 123.8,72.7 122.3,75.2 L121.6,76.2 Z" id="路径" fill="#5C5C5C"></path>
                        <polygon id="路径" fill="#DAE3E9" points="113.8 313.8 113.8 355.7 95.8 355.7 95.8 313.7"></polygon>
                        <polygon id="路径" fill="#EE706D" points="113.8 275.4 113.8 296.1 95.8 313.7 95.8 279 99.4 275.4"></polygon>
                        <polygon id="路径" fill="#DAE3E9" points="113.8 156.7 113.8 275.4 99.4 275.4 95.8 275.4 95.8 156.7"></polygon>
                        <rect id="矩形" fill="#DAE3E9" x="95.8" y="123" width="18" height="33.7"></rect>
                        <path d="M121.2,64.3 L115.3,58.6 L108.9,52.4 C108.2,51.8 107.5,51.3 106.7,50.9 L106.9,50.4 L115.4,43.1 L131.3,58.6 L124,67 L123.2,67.2 C122.7,66.1 122,65.2 121.2,64.3 Z" id="路径" fill="#5C5C5C"></path>
                        <path d="M108.9,52.5 L115.3,58.7 L113.8,60.3 L97.2,60.3 C95.9,57.5 96.7,54 99.4,52 L99.6,51.8 C101.7,50.3 104.4,50.1 106.7,51 C107.5,51.3 108.2,51.8 108.9,52.5 Z" id="路径" fill="#5C5C5C"></path>
                        <path d="M98.5,62.2 C97.9,61.6 97.5,61 97.2,60.3 L113.8,60.3 L113.8,77.7 C113.6,77.6 113.4,77.4 113.2,77.2 L98.5,62.2 Z" id="路径" fill="#5C5C5C"></path>
                        <path d="M98.5,62.2 L113.2,77.1 C113.4,77.3 113.6,77.5 113.8,77.6 L113.8,123 L95.8,123 L95.8,60.2 L97.2,60.2 C97.5,60.9 97.9,61.6 98.5,62.2 Z" id="路径" fill="#DAE3E9"></path>
                        <polygon id="路径" fill="#E7F2FA" points="95.8 313.7 95.8 355.7 61.1 355.7 61.1 313.4"></polygon>
                        <polygon id="路径" fill="#EE706D" points="95.8 279 95.8 313.7 61.1 313.4"></polygon>
                        <path d="M95.8,156.7 L95.8,275.3 L61.2,275.3 L61.2,231.7 C61.2,226 56.5,221.3 50.8,221.3 L46,221.3 L36.8,221.3 L36.8,156.7 L95.8,156.7 L95.8,156.7 Z" id="路径" fill="#E7F2FA"></path>
                        <rect id="矩形" fill="#FFFFFF" x="36.7" y="123" width="59.1" height="33.7"></rect>
                        <path d="M95.8,60.2 L95.8,123 L36.7,123 L36.7,77.4 C36.7,67.9 44.4,60.3 53.8,60.3 L95.8,60.3 L95.8,60.2 Z" id="路径" fill="#E7F2FA"></path>
                        <path d="M61.1,313.4 L61.1,355.6 L45.9,355.6 L45.9,221.3 L50.7,221.3 C56.4,221.3 61.1,226 61.1,231.7 L61.1,275.3 L61.1,313.4 L61.1,313.4 Z" id="路径" fill="#E2E1E3"></path>
                        <path d="M45.9,221.3 L45.9,355.6 L21.7,355.6 L21.7,231.7 C21.7,226 26.4,221.3 32.1,221.3 L36.7,221.3 L45.9,221.3 Z" id="路径" fill="#FDFDFD"></path>
                    </g>
                </g>
                <g id="编组" transform="translate(666.000000, 177.000000)" fill="#96CEF7" fill-rule="nonzero">
                    <path d="M20.2,9.6 L20.2,5.9 C20.2,2.9 22.6,0.5 25.6,0.5 L116.2,0.5 C119.2,0.5 121.6,2.9 121.6,5.9 L121.6,9.7 C121.6,12.7 119.2,15.1 116.2,15.1 L76.3,15.1 C73.3,15.1 70.9,17.5 70.9,20.5 L70.9,24.5 C70.9,27.5 73.3,29.9 76.3,29.9 L83.9,29.9 C86.9,29.9 89.3,32.3 89.3,35.2 L89.4,41.6 C89.4,44.6 87,47.1 84,47.1 L5.9,47.1 C2.9,47.1 0.5,44.7 0.5,41.7 L0.5,35.5 C0.5,32.5 2.9,30.1 5.9,30.1 L41.3,29.9 C44.2,29.9 46.6,27.5 46.7,24.6 L46.8,20.3 C46.9,17.3 44.4,14.8 41.3,14.8 L25.6,15 C22.7,15.1 20.2,12.6 20.2,9.6 Z" id="路径"></path>
                    <circle id="椭圆形" cx="140.9" cy="8.5" r="8"></circle>
                </g>
                <g id="编组" transform="translate(0.000000, 278.000000)" fill="#96CEF7" fill-rule="nonzero">
                    <path d="M161.6,11.8 L161.6,7.2 C161.6,3.5 158.6,0.4 154.8,0.4 L41.7,0.4 C38,0.4 34.9,3.4 34.9,7.2 L34.9,11.9 C34.9,15.6 37.9,18.6 41.6,18.6 L91.5,18.6 C95.2,18.6 98.3,21.6 98.3,25.4 L98.3,30.4 C98.3,34.1 95.3,37.2 91.5,37.2 L82,37.2 C78.3,37.2 75.3,40.2 75.2,43.9 L75.1,51.9 C75,55.7 78.1,58.8 81.9,58.8 L179.5,58.8 C183.2,58.8 186.3,55.8 186.3,52 L186.3,44.3 C186.3,40.6 183.3,37.6 179.6,37.5 L135.3,37.2 C131.6,37.2 128.6,34.2 128.6,30.6 L128.5,25.3 C128.4,21.5 131.5,18.4 135.3,18.4 L154.9,18.6 C158.5,18.6 161.6,15.6 161.6,11.8 Z" id="路径"></path>
                    <circle id="椭圆形" cx="10.8" cy="10.4" r="9.9"></circle>
                </g>
                <path d="M429.2,201.7 L616.2,201.7" id="路径" stroke="#FFFFFF"></path>
                <path d="M414.9,201.7 L424.6,201.7" id="路径" stroke="#FFFFFF"></path>
                <path d="M192.4,378.1 C192.4,378.1 191.7,364.9 208.8,358.9" id="路径" stroke="#FFFFFF"></path>
                <path d="M337.2,70.6 C337.2,70.6 343.9,79.8 351,74.1" id="路径" stroke="#FFFFFF"></path>
                <path d="M353.5,72.1 L368.3,58.6" id="路径" stroke="#FFFFFF"></path>
                <g id="XMLID_2_" transform="translate(107.000000, 0.000000)" stroke="#000000" stroke-width="2">
                    <g id="编组">
                        <path d="M103.7,355.7 L103.7,231.7 C103.7,226 108.4,221.3 114.1,221.3 L118.7,221.3 L127.9,221.3 L132.7,221.3 C138.4,221.3 143.1,226 143.1,231.7 L143.1,275.3 L143.1,313.6 L143.1,355.6 L103.7,355.6 L103.7,355.7 Z" id="路径"></path>
                        <path d="M181.4,275.4 L145.5,313.7 L177.7,313.9 L195.7,314 L223.4,314.2 L260.3,314.4 L294,314.6 L304.1,314.7 L338.4,314.9 L384.1,315.2 L420.8,315.4 L465.8,315.7 L504.9,316 L526.1,316.1 L547.5,316.2 L582,316.4 L614.6,316.6 C620.4,316.7 625,312 625,306.2 L625,285.5 C625,280.8 621.9,276.9 617.7,275.6 C616.7,275.3 615.7,275.1 614.7,275.1 L583.8,275.1 L542.6,275.1 L526,275.1 L504.8,275.1 L459.5,275.1 L425,275.1 L381.4,275.1 L346.4,275.1 L298.3,275.1 L294.1,275.1 L260.4,275.1 L217,275.1 L195.8,275.1 L181.4,275.1 L143.1,275.1" id="路径"></path>
                        <path d="M217,275.4 L177.8,313.7" id="路径"></path>
                        <path d="M260.4,275.4 L223.5,313.7" id="路径"></path>
                        <path d="M298.2,275.4 L260.4,314.3" id="路径"></path>
                        <path d="M304.1,314.6 L346.4,275.4" id="路径"></path>
                        <path d="M338.4,314.8 L381.3,275.4" id="路径"></path>
                        <path d="M384.1,315.2 L425,275.4" id="路径"></path>
                        <path d="M459.6,275.4 L420.8,314.8" id="路径"></path>
                        <path d="M465.8,315.8 L504.9,275.4" id="路径"></path>
                        <path d="M542.7,275.4 L504.9,315.8" id="路径"></path>
                        <path d="M583.8,275.4 L547.5,315.2" id="路径"></path>
                        <polyline id="路径" points="618.1 275.4 617.7 275.8 582 316.6 581.8 316.9"></polyline>
                        <path d="M599.7,382 L679.5,382" id="路径"></path>
                        <path d="M594.4,382 L596.7,382" id="路径"></path>
                        <path d="M560.4,382 L588.6,382" id="路径"></path>
                        <polyline id="路径" points="282.5 382 306.6 382 513.6 382 555.3 382"></polyline>
                        <path d="M249.8,382 L276.6,382" id="路径"></path>
                        <polyline id="路径" points="37 382 82.2 382 232.2 382 244.7 382"></polyline>
                        <path d="M26.8,382 L34.2,382" id="路径"></path>
                        <path d="M0,382 L20.4,382" id="路径"></path>
                        <path d="M82.2,382 C82.2,382 79.4,359.8 103.7,355.7" id="路径"></path>
                        <path d="M143.1,355.7 L195.7,355.7 L214.6,355.7 C214.6,355.7 234.5,358.9 232.2,382" id="路径"></path>
                        <polyline id="路径" points="195.8 313.7 195.8 314 195.8 355.7"></polyline>
                        <polyline id="路径" points="195.8 78.7 195.8 123 195.8 156.7 195.8 275.4"></polyline>
                        <path d="M118.7,221.3 L118.7,156.7 L118.7,123 L118.7,77.4 C118.7,67.9 126.4,60.3 135.8,60.3 L178.6,60.3" id="路径"></path>
                        <path d="M177.8,123 L195.8,123" id="路径"></path>
                        <path d="M118.7,123 L177.8,123" id="路径"></path>
                        <path d="M177.8,156.7 L195.8,156.7" id="路径"></path>
                        <path d="M118.7,156.7 L177.8,156.7" id="路径"></path>
                        <path d="M179.1,60 C179.4,60.8 179.9,61.5 180.5,62.2 L195.2,77.1 C195.5,77.4 195.8,77.6 196.1,77.8 C198.6,79.5 202,78.8 203.7,76.2 L204.4,75.1 C206,72.7 206.2,69.7 205.1,67.1 C204.7,66 204,65.1 203.2,64.2 L190.9,52.3 C190.2,51.7 189.5,51.2 188.7,50.8 C186.4,49.9 183.7,50.1 181.6,51.6 L181.4,51.8 C178.7,53.8 177.9,57.2 179.1,60 Z" id="路径"></path>
                        <polyline id="路径" points="188.9 50.5 197.4 43.2 213.2 58.6 205.9 67"></polyline>
                        <polyline id="路径" points="176.5 22.8 177.1 23.3 197.4 43.2"></polyline>
                        <path d="M213.2,58.6 L231.6,76.1 C235.5,79.8 241.5,79.9 245.6,76.4 L250.7,71.9 L265.8,58.6 L211.8,4 C207.8,0 201.3,-0.1 197.2,3.9 L177,23.4 L176.5,23.9" id="路径"></path>
                        <path d="M250.8,71.9 L275.3,84.4 C275.3,84.4 292.1,91 279.8,73.7 L266,58.6" id="路径"></path>
                        <path d="M526.1,315.7 L526.1,316.2 L526.1,366.6 C526.1,374.1 520.7,380.5 513.6,381.9 C512.6,382.1 511.5,382.2 510.4,382.2 L309.8,382.2 C308.7,382.2 307.7,382.1 306.6,381.9 C299.5,380.4 294.1,374.1 294.1,366.6 L294.1,343.6" id="路径"></path>
                        <path d="M510.4,204.4 C519,204.4 526.1,211.5 526.1,220.1 L526.1,275.4" id="路径"></path>
                        <path d="M294.1,275.4 L294.1,220.1 C294.1,211.5 301.2,204.4 309.8,204.4" id="路径"></path>
                        <polyline id="路径" points="294.1 329.8 294.1 314.7 294.1 314.3"></polyline>
                        <path d="M472.7,162.8 L513,162.8 C521.6,162.8 528.7,169.9 528.7,178.5 L528.7,188.7 C528.7,197.3 521.6,204.4 513,204.4 L510.4,204.4 L309.8,204.4 C301.2,204.4 294.1,197.3 294.1,188.7 L294.1,178.5 C294.1,169.9 301.2,162.8 309.8,162.8 L332,162.8" id="路径"></path>
                        <path d="M342.6,162.8 L459.6,162.8" id="路径"></path>
                        <path d="M331.9,162.8 L342.6,162.8" id="路径"></path>
                        <path d="M311.6,253.9 L306.4,253.9 C305.6,253.9 305,253.2 305,252.4 L305,222.3 C305,221.5 305.6,220.9 306.4,220.9 L311.6,220.9 C312.4,220.9 313.1,221.5 313.1,222.3 L313.1,252.4 C313.1,253.2 312.4,253.9 311.6,253.9 Z" id="路径"></path>
                        <path d="M309.3,267.2 C306.9,267.2 305,265.3 305,262.9 C305,260.5 306.9,258.6 309.3,258.6 C311.7,258.6 313.6,260.5 313.6,262.9 C313.7,265.2 311.7,267.2 309.3,267.2 Z" id="路径"></path>
                    </g>
                </g>
            </g>
        </g>
    </g>
</svg>