<?xml version="1.0" encoding="UTF-8"?>
<svg width="663px" height="613px" viewBox="0 0 663 613" version="1.1" xmlns="http://www.w3.org/2000/svg" xmlns:xlink="http://www.w3.org/1999/xlink">
    <!-- Generator: Sketch 54 (76480) - https://sketchapp.com -->
    <title>404-彩色-01</title>
    <desc>Created with Sketch.</desc>
    <defs>
        <linearGradient x1="0.839628741%" y1="49.9871795%" x2="100.132159%" y2="49.9871795%" id="linearGradient-1">
            <stop stop-color="#FFFFFF" offset="0%"></stop>
            <stop stop-color="#309EED" stop-opacity="0.3" offset="97.2%"></stop>
        </linearGradient>
        <linearGradient x1="-0.010253631%" y1="49.9839957%" x2="100.028853%" y2="49.9839957%" id="linearGradient-2">
            <stop stop-color="#FFFFFF" offset="0%"></stop>
            <stop stop-color="#C8E7FC" stop-opacity="0.5" offset="63.26%"></stop>
            <stop stop-color="#93CFFA" stop-opacity="0.5" offset="100%"></stop>
        </linearGradient>
        <linearGradient x1="0.666557635%" y1="50.1320513%" x2="99.9590879%" y2="50.1320513%" id="linearGradient-3">
            <stop stop-color="#FFFFFF" offset="0%"></stop>
            <stop stop-color="#309EED" stop-opacity="0.3" offset="97.2%"></stop>
        </linearGradient>
    </defs>
    <g id="页面1" stroke="none" stroke-width="1" fill="none" fill-rule="evenodd">
        <g id="404-彩色-01" transform="translate(-1.000000, -8.000000)">
            <g id="图层_2" transform="translate(1.000000, 9.000000)">
                <ellipse id="椭圆形" fill="#EBF3FC" fill-rule="nonzero" cx="331.6" cy="275.8" rx="331.3" ry="204.2"></ellipse>
                <g id="编组" transform="translate(483.000000, 98.000000)" fill="#93CFFA" fill-rule="nonzero">
                    <path d="M18.8,8.7 L18.8,5.4 C18.8,2.7 21,0.5 23.7,0.5 L106.1,0.5 C108.8,0.5 111,2.7 111,5.4 L111,8.8 C111,11.5 108.8,13.7 106.1,13.7 L69.8,13.7 C67.1,13.7 64.9,15.9 64.9,18.6 L64.9,22.2 C64.9,24.9 67.1,27.1 69.8,27.1 L76.7,27.1 C79.4,27.1 81.6,29.3 81.6,31.9 L81.7,37.8 C81.7,40.5 79.5,42.8 76.8,42.8 L5.8,42.8 C3.1,42.8 0.9,40.6 0.9,37.9 L0.9,32.3 C0.9,29.6 3.1,27.4 5.8,27.4 L38,27.2 C40.7,27.2 42.8,25 42.9,22.4 L43,18.5 C43,15.7 40.8,13.5 38,13.5 L23.8,13.6 C21,13.6 18.8,11.4 18.8,8.7 Z" id="路径"></path>
                    <circle id="椭圆形" cx="128.5" cy="7.7" r="7.2"></circle>
                </g>
                <g id="XMLID_1_" transform="translate(186.000000, 33.000000)" fill-rule="nonzero">
                    <g id="编组">
                        <path d="M317.1,490.4 C318,491.4 324.3,498.2 323.1,498.2 C321.7,498.2 314.8,492.6 314.8,492.6 L314.7,492.3 C315.2,492.2 315.6,491.9 316.1,491.6 C316.6,491.3 316.9,490.9 317.1,490.4 Z" id="路径" fill="url(#linearGradient-1)"></path>
                        <path d="M275.2,73.8 C294.6,88.4 313.1,112.4 309.8,149.8 C301.7,146.1 293,142.5 283.9,139 C302.3,101 269.3,69.7 269.3,69.7 C271.3,71 273.3,72.3 275.2,73.8 Z" id="路径" fill="#E7B976"></path>
                        <path d="M269.3,69.7 C269.3,69.7 302.2,101 283.9,139 C265,131.8 244.2,125.4 222.1,120 C184.7,111 149.1,106.4 119,106.1 C119,106.1 132.6,58.1 204.4,53.4 C211.2,53 218,53.1 224.6,53.9 C229.6,54.5 234.5,55.4 239.4,56.7 C250,59.4 260.1,63.7 269.3,69.7 Z M202.9,70.9 C202.9,68.5 201,66.6 198.5,66.6 C196.1,66.6 194.2,68.5 194.2,70.9 C194.2,73.3 196.1,75.3 198.5,75.3 C200.9,75.3 202.9,73.3 202.9,70.9 Z M184.5,80.2 C186.8,79.1 188.2,76.5 187.4,74.1 C186.8,72.3 185,70.7 180.5,71.2 C172.7,72 161.9,79.6 157.5,82.9 C155.7,84.2 154.3,86 153.6,88.2 C151.5,94.8 158.8,96.7 163.5,92.3 C167.7,88.4 179.3,82.6 184.5,80.2 Z" id="形状" fill="#FED37C"></path>
                        <path d="M275,446.6 L275,446.6 L275.6,436.3 C276.1,436.5 281.7,442.4 282.1,442.9 L316.8,485.8 C317.9,487.1 318,488.9 317.2,490.4 C317,490.8 316.6,491.2 316.2,491.6 C315.8,491.9 315.3,492.2 314.8,492.3 L313.6,492.5 C312.4,492.5 311.2,492 310.4,491 L275.8,448 C275.4,447.6 275.2,447.1 275,446.6 Z" id="路径" fill="#AFD7A3"></path>
                        <path d="M274.2,448.6 C273.9,448.8 273.5,448.9 273.1,448.9 L266.3,448.5 C266.2,448.5 266.1,448.5 266,448.5 C266,448.5 266,448.5 266,448.5 C265.2,448.3 264.6,447.6 264.7,446.7 L265.7,430.3 C265.8,429.4 266.6,428.6 267.5,428.7 L274.3,429.1 C275.3,429.2 276,430 275.9,430.9 L275.6,436.4 L275,446.7 L275,447.3 C274.9,447.8 274.6,448.3 274.2,448.6 Z" id="路径" fill="#DE7B4B"></path>
                        <path d="M274.2,448.7 L274.2,503.9 C274.2,505.6 273.2,507 271.7,507.6 C271.2,507.8 270.7,507.9 270.1,507.9 C269.5,507.9 269,507.8 268.5,507.6 C268,507.4 267.6,507.1 267.2,506.7 C266.5,506 266,505 266,503.8 L266,448.6 C266,448.5 266,448.4 266,448.3 C266.1,448.3 266.2,448.3 266.3,448.3 L273.1,448.7 C273.5,448.7 273.9,448.6 274.2,448.4 C274.2,448.6 274.2,448.7 274.2,448.7 Z" id="路径" fill="#AFD7A3"></path>
                        <path d="M243.1,299.2 L243.1,299.2 L239.5,285.3 C238.8,282.5 240.5,279.7 243.3,278.9 L250.8,277 L263.2,273.8 C266,273.1 268.8,274.8 269.6,277.6 L273.4,292.7 L271,293.3 L244.4,298.9 L243.1,299.2 Z" id="路径" fill="#99CFF4"></path>
                        <path d="M247.5,0.1 C249.9,0.1 239.4,56.6 239.4,56.6 L239.4,56.6 C234.6,55.3 229.6,54.4 224.6,53.8 C224.6,53.9 245.1,0.1 247.5,0.1 Z" id="路径" fill="#AFD7A3"></path>
                        <path d="M274.8,318.8 L254.9,323.9 C252.1,324.6 249.3,322.9 248.6,320.1 L243.2,299.1 L244.5,298.8 L271.1,293.2 L273.5,292.6 L278.6,312.5 C279.2,315.2 277.5,318.1 274.8,318.8 Z" id="路径" fill="#309EED"></path>
                        <path d="M237.3,340.7 C242.5,343.4 245.3,350.2 244.1,356.7 C244,357.6 243.7,358.4 243.4,359.3 L240.8,366.9 L125.7,305.7 L127.8,299.7 C130.3,292.5 137.1,289.1 143,292.2 L237.3,340.7 Z" id="路径" fill="#D8D7D7"></path>
                        <path d="M215.9,398.7 L214.1,404.1 C214,404.4 214.2,404.9 214.5,405 L217.1,405.9 C217.4,406 217.8,405.8 218,405.5 L219.8,400.1 C219.9,399.7 219.7,399.3 219.4,399.2 L216.8,398.3 C216.4,398.2 216.1,398.4 215.9,398.7 Z M230.1,366.1 L227.5,365.2 C227.1,365.1 226.7,365.3 226.6,365.6 L218,391.2 C217.9,391.5 218.1,391.9 218.4,392.1 L221,393 C221.4,393.1 221.8,392.9 221.9,392.6 L230.5,367 C230.6,366.6 230.4,366.2 230.1,366.1 Z M125.8,305.7 L240.9,366.9 L222.5,420.2 L107.6,358.3 L125.8,305.7 Z" id="形状" fill="#5C5C5C"></path>
                        <path d="M222.5,420.1 L240.9,366.8 L243.5,359.2 C243.8,358.3 244,357.5 244.2,356.6 L252.8,361.3 C257.1,363.6 258.6,370.1 255.9,374.8 C248,389 232.9,415.5 226.8,421.6 C218.6,429.6 214.8,428.5 214.6,428.4 C217.9,427.4 221,424.5 222.5,420.1 Z" id="路径" fill="#D8D7D7"></path>
                        <path d="M222.5,420.1 C221,424.4 218,427.4 214.5,428.4 C214.5,428.4 214.5,428.4 214.5,428.4 C212.2,429.1 209.7,428.9 207.3,427.7 L113,379.2 C107.1,376.2 104.3,367.8 106.8,360.7 L107.6,358.3 L222.5,420.1 Z" id="路径" fill="#D8D7D7"></path>
                        <path d="M227.5,365.2 L230.1,366.1 C230.4,366.2 230.7,366.6 230.5,367 L221.9,392.6 C221.8,393 221.4,393.2 221,393 L218.4,392.1 C218.1,392 217.8,391.6 218,391.2 L226.6,365.6 C226.8,365.3 227.1,365.1 227.5,365.2 Z" id="路径" fill="#FFFFFF"></path>
                        <path d="M214.1,404.2 L215.9,398.8 C216,398.5 216.4,398.2 216.8,398.4 L219.4,399.3 C219.7,399.4 220,399.8 219.8,400.2 L218,405.6 C217.9,406 217.5,406.2 217.1,406 L214.5,405.1 C214.2,404.9 214,404.5 214.1,404.2 Z" id="路径" fill="#FFFFFF"></path>
                        <path d="M199.6,191.8 C197.4,191.8 195.7,190 195.7,187.9 C195.7,185.7 197.5,184 199.6,184 C201.7,184 203.5,185.8 203.5,187.9 C203.6,190 201.8,191.8 199.6,191.8 Z" id="路径" fill="#FED37C"></path>
                        <path d="M198.5,66.6 C200.9,66.6 202.9,68.5 202.9,70.9 C202.9,73.3 201,75.3 198.5,75.3 C196.1,75.3 194.2,73.4 194.2,70.9 C194.2,68.5 196.1,66.6 198.5,66.6 Z" id="路径" fill="#FFFFFF"></path>
                        <path d="M193.8,237.3 C195.9,237.8 198,238.3 200,238.8 L199.8,240 L199.6,240 L183.1,237.1 L183,237.1 L183.4,234.7 C186.8,235.6 190.3,236.5 193.8,237.3 Z" id="路径" fill="#DE7B4B"></path>
                        <path d="M199.6,191.8 C201.8,191.8 203.5,190 203.5,187.9 C203.5,185.7 201.7,184 199.6,184 C197.5,184 195.7,185.8 195.7,187.9 C195.7,190 197.5,191.8 199.6,191.8 Z M205.4,205 L205.6,203.8 C205.8,202.2 204.8,200.8 203.2,200.5 L197.6,199.6 L192,198.7 C190.5,198.5 189.1,199.4 188.8,200.8 C143.6,188.5 110.6,170.5 113.4,158.9 C116.4,146.5 159.8,146.3 210.3,158.5 C260.8,170.7 299.3,190.7 296.3,203.1 C293.4,215.2 253.3,215.8 205.4,205 Z" id="形状" fill="#FFFFFF"></path>
                        <path d="M203.2,200.5 C204.8,200.7 205.8,202.2 205.6,203.8 L205.4,205 C203.4,204.6 201.4,204.1 199.4,203.6 C195.8,202.7 192.3,201.8 188.8,200.9 C189.1,199.5 190.6,198.5 192,198.8 L197.6,199.7 L203.2,200.5 Z" id="路径" fill="#DE7B4B"></path>
                        <path d="M183.4,234.7 L188.8,201.1 C188.8,201 188.8,200.9 188.9,200.9 C192.4,201.9 195.9,202.8 199.5,203.6 C201.5,204.1 203.5,204.5 205.5,205 L200.1,238.8 C198,238.4 195.9,237.9 193.9,237.3 C190.3,236.5 186.8,235.6 183.4,234.7 Z" id="路径" fill="#DE7B4B"></path>
                        <path d="M187.4,74.1 C188.2,76.5 186.8,79.1 184.5,80.2 C179.3,82.7 167.7,88.4 163.5,92.3 C158.8,96.7 151.5,94.8 153.6,88.2 C154.3,86.1 155.7,84.3 157.5,82.9 C161.9,79.5 172.7,72 180.5,71.2 C185,70.7 186.8,72.3 187.4,74.1 Z" id="路径" fill="#FFFFFF"></path>
                        <path d="M188.8,201.1 L183.4,234.7 C91,210.4 23.5,167.1 31.1,135.9 C35.9,115.9 70.4,105.6 119.1,106.1 C149.3,106.4 184.9,111 222.2,120 C244.3,125.3 265.1,131.8 284,139 C293.1,142.4 301.8,146.1 309.9,149.8 C359.7,172.6 390.2,199.9 385,221.5 C377.3,253.2 295.2,260.7 200.2,238.8 L205.6,205 C253.5,215.8 293.6,215.2 296.5,203.2 C299.5,190.8 261,170.8 210.5,158.6 C160,146.4 116.6,146.6 113.6,159 C110.8,170.6 143.8,188.6 189,200.9 C188.8,200.9 188.8,201 188.8,201.1 Z" id="路径" fill="#AFD7A3"></path>
                        <path d="M190.3,245.4 L184.7,244.5 C183.1,244.3 182.1,242.8 182.3,241.2 L183,237.1 L183.1,237.1 L199.6,240 L199.8,240 L199.2,243.9 C199,245.5 197.5,246.5 195.9,246.3 L190.3,245.4 Z" id="路径" fill="#DE7B4B"></path>
                        <path d="M105.1,260.8 L97.3,278 L77.2,270.1 L85.5,251.9 C86,250.8 87.4,250.3 88.5,250.8 L104,257.9 C105.1,258.4 105.6,259.7 105.1,260.8 Z" id="路径" fill="#FFFFFF"></path>
                        <path d="M92.6,288.4 C92.1,289.5 90.7,290 89.6,289.5 L74.1,282.5 C73,282 72.5,280.7 73,279.5 L77.2,270.2 L97.3,278.1 L92.6,288.4 Z" id="路径" fill="#AFD7A3"></path>
                        <path d="M52,397.3 C53.9,398.3 54.5,400.8 53.3,402.6 L40.6,422.4 C38.7,425.4 34.6,426.1 31.7,424 L3.1,402.9 C0.4,400.9 -0.2,397.1 1.8,394.3 L16.8,373.5 C17.9,372 19.8,371.6 21.4,372.6 L33.4,379.7 C35.3,380.8 36.4,382.8 36.4,385 C36.4,387.2 37.6,389.3 39.6,390.4 L52,397.3 Z" id="路径" fill="#FFD68B"></path>
                    </g>
                </g>
                <g id="编组" transform="translate(20.000000, 248.000000)" fill="#93CFFA" fill-rule="nonzero">
                    <path d="M155.3,11.1 L155.3,6.7 C155.3,3.1 152.4,0.2 148.8,0.2 L39.8,0.2 C36.2,0.2 33.3,3.1 33.3,6.7 L33.3,11.2 C33.3,14.8 36.2,17.7 39.8,17.7 L87.8,17.7 C91.4,17.7 94.3,20.6 94.3,24.2 L94.3,29 C94.3,32.6 91.4,35.5 87.8,35.5 L78.7,35.5 C75.1,35.5 72.2,38.4 72.2,41.9 L72.1,49.6 C72,53.2 75,56.2 78.6,56.2 L172.6,56.2 C176.2,56.2 179.1,53.3 179.1,49.7 L179.1,42.2 C179.1,38.6 176.2,35.7 172.6,35.7 L129.9,35.5 C126.4,35.5 123.5,32.6 123.4,29.1 L123.3,24 C123.2,20.3 126.2,17.3 129.9,17.4 L148.8,17.6 C152.3,17.7 155.3,14.7 155.3,11.1 Z" id="路径"></path>
                    <circle id="椭圆形" cx="10" cy="9.7" r="9.6"></circle>
                </g>
                <path d="M545.2,211.7 C564.2,226.6 574,241.6 570.8,254.5 C563.1,286.2 481,293.7 385.9,271.8" id="路径" stroke="#000000" stroke-width="2"></path>
                <path d="M534.7,204.2 C536.5,205.4 538.2,206.5 539.8,207.7" id="路径" stroke="#000000" stroke-width="2"></path>
                <path d="M369.3,268.6 C276.2,244.4 209.5,200.3 217.1,168.9 C224.9,136.5 310.5,129.4 408.2,153 C454,164.1 494.3,179.9 523.5,197" id="路径" stroke="#000000" stroke-width="2"></path>
                <path d="M351,94.8 C361.6,90.6 374.6,87.4 390.4,86.4 C415.7,84.7 441,91.6 461.2,106.8 C480.6,121.4 499.1,145.4 495.8,182.8" id="路径" stroke="#000000" stroke-width="2"></path>
                <path d="M343,98.4 C345.5,97.1 348.2,95.9 351,94.8" id="路径" stroke="#000000" stroke-width="2"></path>
                <path d="M305,139.1 C305,139.1 310.9,118.3 335.5,102.7" id="路径" stroke="#000000" stroke-width="2"></path>
                <path d="M376.9,234.5 C330.7,222.2 296.6,203.8 299.4,192.1 C302.4,179.7 345.8,179.5 396.3,191.7 C446.8,203.9 485.3,223.9 482.3,236.3 C479.4,248.4 438.5,248.9 389.9,237.7" id="路径" stroke="#000000" stroke-width="2"></path>
                <path d="M410.6,86.9 C410.6,86.9 431.1,33.1 433.5,33.1 C435.9,33.1 425.4,89.6 425.4,89.6" id="路径" stroke="#000000" stroke-width="2"></path>
                <path d="M422.2,26.6 L418.2,0.1" id="路径" stroke="#000000" stroke-width="2"></path>
                <path d="M437.2,26.6 L443.4,3.5" id="路径" stroke="#000000" stroke-width="2"></path>
                <path d="M446.1,33.1 L464.5,20.5" id="路径" stroke="#000000" stroke-width="2"></path>
                <path d="M339.6,121.2 C340.3,119.1 341.7,117.3 343.5,115.9 C347.9,112.6 358.7,105 366.5,104.2 C371,103.7 372.8,105.3 373.4,107.1 C374.2,109.5 372.8,112.1 370.5,113.2 C365.3,115.6 353.7,121.4 349.5,125.3 C344.8,129.7 337.5,127.8 339.6,121.2 Z" id="路径"></path>
                <circle id="椭圆形" fill="#FFFFFF" fill-rule="nonzero" cx="384.5" cy="103.9" r="4.3"></circle>
                <path d="M187.8,427.3 L202.8,406.5 C203.9,405 205.8,404.6 207.4,405.6 L219.4,412.7 C221.3,413.8 222.4,415.8 222.4,418 L222.4,418 C222.4,420.2 223.6,422.3 225.6,423.4 L238,430.3 C239.9,431.3 240.5,433.8 239.3,435.6 L226.6,455.3 C224.7,458.3 220.6,459.1 217.7,456.9 L189.1,435.8 C186.4,433.9 185.8,430 187.8,427.3 Z" id="路径" stroke="#000000" stroke-width="2"></path>
                <path d="M275.6,322.5 L260.1,315.5 C259,315 258.5,313.7 259,312.5 L271.5,284.9 C272,283.8 273.3,283.3 274.5,283.8 L290,290.8 C291.1,291.3 291.6,292.6 291.1,293.8 L278.6,321.4 C278,322.6 276.7,323.1 275.6,322.5 Z" id="路径" stroke="#000000" stroke-width="2"></path>
                <g id="编组" transform="translate(291.000000, 324.000000)" stroke="#000000" stroke-width="2">
                    <path d="M102.3,136.7 L8,88.2 C2.1,85.2 -0.7,76.8 1.8,69.7 L22.8,8.8 C25.3,1.6 32.1,-1.8 38,1.2 L132.3,49.7 C138.2,52.7 141,61.1 138.5,68.2 L117.5,129.1 C115,136.3 108.2,139.7 102.3,136.7 Z" id="路径"></path>
                    <path d="M109.5,137.4 C109.5,137.4 113.2,138.9 121.8,130.6 C128,124.6 143.1,98 150.9,83.8 C153.5,79.1 152,72.7 147.8,70.3 L139.2,65.6" id="路径"></path>
                </g>
                <path d="M459.1,481.8 L452.3,481.4 C451.4,481.3 450.6,480.5 450.7,479.6 L451.7,463.2 C451.8,462.3 452.6,461.5 453.5,461.6 L460.3,462 C461.2,462.1 462,462.9 461.9,463.8 L460.9,480.2 C460.9,481.2 460,481.9 459.1,481.8 Z" id="路径" stroke="#000000" stroke-width="2"></path>
                <path d="M459.8,480 C460.1,480.5 460.2,481.1 460.2,481.7 L460.2,536.9 C460.2,539.1 458.4,541 456.1,541 L456.1,541 C453.9,541 452,539.2 452,536.9 L452,481.7 C452,481.1 452.1,480.6 452.3,480.1" id="路径" stroke="#000000" stroke-width="2"></path>
                <path d="M461.6,469.3 C462.1,469.6 467.7,475.4 468.1,475.9 L502.8,518.8 C504.2,520.5 503.9,523.1 502.2,524.5 L502.2,524.5 C500.5,525.9 497.9,525.6 496.5,523.9 L461.8,481 C461.4,480.6 461.2,480.1 461.1,479.6" id="路径" stroke="#000000" stroke-width="2"></path>
                <path d="M454.5,540.6 C454.5,540.6 455.2,549.4 456.1,550.5 C457,551.5 457.7,540.6 457.7,540.6" id="路径" stroke="#000000" stroke-width="2"></path>
                <path d="M500.8,525.6 C500.8,525.6 507.7,531.2 509.1,531.2 C510.5,531.2 503,523.3 503,523.3" id="路径" stroke="#000000" stroke-width="2"></path>
                <path d="M311.7,338.7 L426.8,399.9" id="路径" stroke="#000000" stroke-width="2"></path>
                <path d="M293.6,391.3 L408.5,453.2" id="路径" stroke="#000000" stroke-width="2"></path>
                <path d="M404.5,425.1 L407.1,426 C407.5,426.1 407.9,425.9 408,425.6 L416.6,400 C416.7,399.6 416.5,399.2 416.2,399.1 L413.6,398.2 C413.2,398.1 412.8,398.3 412.7,398.6 L404.1,424.2 C403.9,424.5 404.1,424.9 404.5,425.1 Z" id="路径" stroke="#000000" stroke-width="2"></path>
                <path d="M400.6,438 L403.2,438.9 C403.6,439 404,438.8 404.1,438.5 L405.9,433.1 C406,432.7 405.8,432.3 405.5,432.2 L402.9,431.3 C402.5,431.2 402.1,431.4 402,431.7 L400.2,437.1 C400,437.5 400.2,437.9 400.6,438 Z" id="路径" stroke="#000000" stroke-width="2"></path>
                <path d="M263.2,303.2 L283.3,311" id="路径" stroke="#000000" stroke-width="2"></path>
                <path d="M434.5,353.1 L425.6,318.2 C424.9,315.4 426.6,312.6 429.4,311.9 L449.3,306.8 C452.1,306.1 454.9,307.8 455.6,310.6 L464.5,345.5 C465.2,348.3 463.5,351.1 460.7,351.8 L440.8,356.9 C438,357.6 435.2,355.9 434.5,353.1 Z" id="路径" stroke="#000000" stroke-width="2"></path>
                <path d="M430.4,331.8 L457,326.2" id="路径" stroke="#000000" stroke-width="2"></path>
                <path d="M440.7,319.1 L443.1,329" id="路径" stroke="#000000" stroke-width="2"></path>
                <path d="M430.4,283.6 C430.4,283.6 426.3,285.6 431.8,292.5 C437.3,299.3 436.9,310 436.9,310" id="路径" stroke="#000000" stroke-width="2"></path>
                <g id="编组" transform="translate(369.000000, 217.000000)" stroke="#000000" stroke-width="2">
                    <path d="M0.3,51.6 L4.9,22.7 C5.2,20.6 6.4,18.7 7.9,17.5" id="路径"></path>
                    <path d="M17.1,54.3 C16.4,58.9 12,62.1 7.3,61.4 L7.3,61.4 C2.7,60.7 -0.5,56.3 0.2,51.6" id="路径"></path>
                    <path d="M21,20.4 C21.7,21.9 22,23.6 21.7,25.4 L17.1,54.3" id="路径"></path>
                    <path d="M7.9,17.4 C9.7,15.9 12.1,15.2 14.6,15.6 L14.6,15.6 C17.5,16.1 19.8,17.9 20.9,20.3" id="路径"></path>
                    <path d="M0.2,53.1 L16.6,56" id="路径"></path>
                    <path d="M7.3,61.4 L5.9,67.9" id="路径"></path>
                    <path d="M14.7,15.6 L16.6,7.8" id="路径"></path>
                    <circle id="椭圆形" cx="16.6" cy="3.9" r="3.9"></circle>
                </g>
                <path d="M204.8,406.5 L220.5,416.2" id="路径" stroke="#FFFFFF" stroke-width="2"></path>
                <path d="M220.4,419.6 C220.4,419.6 221.5,423.7 224.9,425.6 C228.3,427.5 237.9,433.3 237.9,433.3" id="路径" stroke="#FFFFFF" stroke-width="2"></path>
                <path d="M315.4,338.3 L423.8,396" id="路径" stroke="#FFFFFF" stroke-width="2"></path>
                <path d="M238.9,152.6 C238.9,152.6 305.5,127.7 429,163.8 C457.5,172.1 478.7,180.1 494.3,187.5" id="路径" stroke="#FFFFFF" stroke-width="2"></path>
                <path d="M381.7,234.4 C381.7,234.4 377.4,235.5 376.3,241 C375.2,246.5 371.5,268.3 371.5,268.3" id="路径" stroke="#FFFFFF" stroke-width="2"></path>
                <path d="M299.7,192 C299.7,192 318.9,168.9 442.6,208.2 C442.6,208.2 483.3,224.3 482.5,238.3 C481.7,252.3 544.4,608.8 544.4,608.8 C544.4,608.8 273.2,637.3 83.1,492.1 L299.7,192 Z" id="路径" fill="url(#linearGradient-2)" fill-rule="nonzero" opacity="0.42"></path>
                <g id="XMLID_2_" transform="translate(185.000000, 282.000000)" fill-rule="nonzero">
                    <g id="编组">
                        <path d="M316.8,240.1 C317.7,241.1 324,247.9 322.8,247.9 C321.4,247.9 314.5,242.3 314.5,242.3 L314.4,242 C314.9,241.9 315.3,241.6 315.8,241.3 C316.2,241 316.6,240.6 316.8,240.1 Z" id="路径" fill="url(#linearGradient-3)"></path>
                        <path d="M274.7,196.3 L274.7,196.3 L275.3,186 C275.8,186.2 281.4,192.1 281.8,192.6 L316.5,235.5 C317.6,236.8 317.7,238.6 316.9,240.1 C316.7,240.5 316.3,240.9 315.9,241.3 C315.5,241.6 315,241.9 314.5,242 L313.3,242.2 C312.1,242.2 310.9,241.7 310.1,240.7 L275.4,197.8 C275.1,197.3 274.8,196.8 274.7,196.3 Z" id="路径" fill="#AFD7A3"></path>
                        <path d="M274.6,196.9 C274.6,197.5 274.3,197.9 273.8,198.2 C273.5,198.4 273.1,198.5 272.7,198.5 L265.9,198.1 C265.8,198.1 265.7,198.1 265.6,198.1 C265.6,198.1 265.6,198.1 265.6,198.1 C264.8,197.9 264.2,197.2 264.3,196.3 L265.3,179.9 C265.4,179 266.2,178.2 267.1,178.3 L273.9,178.7 C274.9,178.8 275.6,179.6 275.5,180.5 L275.2,186 L274.6,196.3 L274.6,196.9 Z" id="路径" fill="#DE7B4B"></path>
                        <path d="M273.8,198.4 L273.8,253.6 C273.8,255.3 272.8,256.7 271.3,257.3 C270.8,257.5 270.3,257.6 269.7,257.6 C269.1,257.6 268.6,257.5 268.1,257.3 C267.6,257.1 267.2,256.8 266.8,256.4 C266.1,255.7 265.6,254.7 265.6,253.5 L265.6,198.3 C265.6,198.2 265.6,198.1 265.6,198 C265.7,198 265.8,198 265.9,198 L272.7,198.4 C273.1,198.4 273.5,198.3 273.8,198.1 C273.8,198.3 273.8,198.4 273.8,198.4 Z" id="路径" fill="#AFD7A3"></path>
                        <path d="M242.8,48.9 L242.8,48.9 L239.2,35 C238.5,32.2 240.2,29.4 243,28.6 L250.5,26.7 L262.9,23.5 C265.7,22.8 268.5,24.5 269.3,27.3 L273.1,42.4 L270.7,43 L244.1,48.6 L242.8,48.9 Z" id="路径" fill="#99CFF4"></path>
                        <path d="M273.1,42.3 L278.2,62.2 C278.9,65 277.2,67.8 274.4,68.5 L254.5,73.6 C251.7,74.3 248.9,72.6 248.2,69.8 L242.8,48.8 L244.1,48.5 L270.7,42.9 L273.1,42.3 Z" id="路径" fill="#309EED"></path>
                        <path d="M237,90.4 C242.2,93.1 245,99.9 243.8,106.4 C243.7,107.3 243.4,108.1 243.1,109 L240.5,116.6 L125.4,55.4 L127.5,49.4 C130,42.2 136.8,38.8 142.7,41.9 L237,90.4 Z" id="路径" fill="#D8D7D7"></path>
                        <path d="M125.4,55.4 L240.5,116.6 L222.1,169.9 L107.3,108 L125.4,55.4 Z M216.8,155.6 C217.1,155.7 217.5,155.5 217.7,155.2 L219.5,149.8 C219.6,149.4 219.4,149 219.1,148.9 L216.5,148 C216.1,147.9 215.7,148.1 215.6,148.4 L213.8,153.8 C213.7,154.1 213.9,154.6 214.2,154.7 L216.8,155.6 Z M226.3,115.3 L217.7,140.9 C217.6,141.2 217.8,141.6 218.1,141.8 L220.7,142.7 C221.1,142.8 221.5,142.6 221.6,142.3 L230.2,116.7 C230.3,116.4 230.1,116 229.8,115.8 L227.2,114.9 C226.8,114.8 226.4,115 226.3,115.3 Z" id="形状" fill="#5C5C5C"></path>
                        <path d="M226.4,171.3 C218.2,179.3 214.4,178.2 214.2,178.1 C217.7,177.1 220.7,174.2 222.2,169.8 L240.6,116.5 L243.2,108.9 C243.5,108 243.7,107.2 243.9,106.3 L252.5,111 C256.8,113.3 258.3,119.8 255.6,124.5 C247.7,138.7 232.6,165.3 226.4,171.3 Z" id="路径" fill="#D8D7D7"></path>
                        <path d="M222.2,169.9 C220.7,174.2 217.7,177.2 214.2,178.2 C214.2,178.2 214.2,178.2 214.2,178.2 C211.9,178.9 209.4,178.7 207,177.5 L112.7,129 C106.8,126 104,117.6 106.5,110.5 L107.3,108.1 L222.2,169.9 Z" id="路径" fill="#D8D7D7"></path>
                        <path d="M217.8,140.9 L226.4,115.3 C226.5,114.9 226.9,114.7 227.3,114.9 L229.9,115.8 C230.2,115.9 230.5,116.3 230.3,116.7 L221.7,142.3 C221.6,142.7 221.2,142.9 220.8,142.7 L218.2,141.8 C217.8,141.6 217.6,141.3 217.8,140.9 Z" id="路径" fill="#FFFFFF"></path>
                        <path d="M216.5,148 L219.1,148.9 C219.4,149 219.7,149.4 219.5,149.8 L217.7,155.2 C217.6,155.6 217.2,155.8 216.8,155.6 L214.2,154.7 C213.8,154.6 213.6,154.2 213.8,153.8 L215.6,148.4 C215.7,148.1 216.1,147.9 216.5,148 Z" id="路径" fill="#FFFFFF"></path>
                        <path d="M104.8,10.6 L97,27.8 L76.9,19.9 L85.2,1.7 C85.7,0.6 87.1,0.1 88.2,0.6 L103.7,7.7 C104.8,8.1 105.3,9.4 104.8,10.6 Z" id="路径" fill="#FFFFFF"></path>
                        <path d="M73.8,32.2 C72.7,31.7 72.2,30.4 72.7,29.2 L76.9,19.9 L97,27.8 L92.3,38.2 C91.8,39.3 90.4,39.8 89.3,39.3 L73.8,32.2 Z" id="路径" fill="#AFD7A3"></path>
                        <path d="M51.6,147 C53.5,148 54.1,150.5 52.9,152.3 L40.3,172 C38.4,175 34.3,175.7 31.4,173.6 L2.8,152.5 C0.1,150.5 -0.5,146.7 1.5,143.9 L16.5,123.1 C17.6,121.6 19.5,121.2 21.1,122.2 L33.1,129.3 C35,130.4 36.1,132.4 36.1,134.6 C36.1,136.8 37.3,138.9 39.3,140 L51.6,147 Z" id="路径" fill="#FFD68B"></path>
                    </g>
                </g>
                <path d="M186.4,426 L201.4,405.2 C202.5,403.7 204.4,403.3 206,404.3 L218,411.4 C219.9,412.5 221,414.5 221,416.7 L221,416.7 C221,418.9 222.2,421 224.2,422.1 L236.6,429 C238.5,430 239.1,432.5 237.9,434.3 L225.3,454 C223.4,457 219.3,457.8 216.4,455.6 L187.8,434.5 C185.1,432.6 184.5,428.7 186.4,426 Z" id="路径" stroke="#000000" stroke-width="2"></path>
                <path d="M274.3,321.3 L258.8,314.3 C257.7,313.8 257.2,312.5 257.7,311.3 L270.2,283.7 C270.7,282.6 272,282.1 273.2,282.6 L288.7,289.6 C289.8,290.1 290.3,291.4 289.8,292.6 L277.3,320.2 C276.7,321.3 275.4,321.8 274.3,321.3 Z" id="路径" stroke="#000000" stroke-width="2"></path>
                <g id="编组" transform="translate(290.000000, 322.000000)" stroke="#000000" stroke-width="2">
                    <path d="M102,137.4 L7.7,88.9 C1.8,85.9 -1,77.5 1.5,70.4 L22.5,9.5 C25,2.3 31.8,-1.1 37.7,1.9 L132,50.4 C137.9,53.4 140.7,61.8 138.2,68.9 L117.2,129.8 C114.7,137 107.9,140.4 102,137.4 Z" id="路径"></path>
                    <path d="M109.1,138.1 C109.1,138.1 112.8,139.6 121.4,131.3 C127.6,125.3 142.7,98.7 150.5,84.5 C153.1,79.8 151.6,73.4 147.4,71 L138.8,66.3" id="路径"></path>
                </g>
                <path d="M457.8,480.5 L451,480.1 C450.1,480 449.3,479.2 449.4,478.3 L450.4,461.9 C450.5,461 451.3,460.2 452.2,460.3 L459,460.7 C459.9,460.8 460.7,461.6 460.6,462.5 L459.6,478.9 C459.6,479.9 458.7,480.6 457.8,480.5 Z" id="路径" stroke="#000000" stroke-width="2"></path>
                <path d="M458.5,478.7 C458.8,479.2 458.9,479.8 458.9,480.4 L458.9,535.6 C458.9,537.8 457.1,539.7 454.8,539.7 L454.8,539.7 C452.6,539.7 450.7,537.9 450.7,535.6 L450.7,480.4 C450.7,479.8 450.8,479.3 451,478.8" id="路径" stroke="#000000" stroke-width="2"></path>
                <path d="M460.3,468 C460.8,468.3 466.4,474.1 466.8,474.6 L501.5,517.5 C502.9,519.2 502.6,521.8 500.9,523.2 L500.9,523.2 C499.2,524.6 496.6,524.3 495.2,522.6 L460.5,479.7 C460.1,479.3 459.9,478.8 459.8,478.3" id="路径" stroke="#000000" stroke-width="2"></path>
                <path d="M453.2,539.3 C453.2,539.3 453.9,548.1 454.8,549.2 C455.7,550.2 456.4,539.3 456.4,539.3" id="路径" stroke="#000000" stroke-width="2"></path>
                <path d="M499.5,524.3 C499.5,524.3 506.4,529.9 507.8,529.9 C509.2,529.9 501.7,522 501.7,522" id="路径" stroke="#000000" stroke-width="2"></path>
                <path d="M310.4,337.4 L425.5,398.6" id="路径" stroke="#000000" stroke-width="2"></path>
                <path d="M292.3,390 L407.2,451.9" id="路径" stroke="#000000" stroke-width="2"></path>
                <path d="M403.2,423.8 L405.8,424.7 C406.2,424.8 406.6,424.6 406.7,424.3 L415.3,398.7 C415.4,398.3 415.2,397.9 414.9,397.8 L412.3,396.9 C411.9,396.8 411.5,397 411.4,397.3 L402.8,422.9 C402.6,423.3 402.8,423.6 403.2,423.8 Z" id="路径" fill="#FFFFFF" fill-rule="nonzero"></path>
                <path d="M399.2,436.7 L401.8,437.6 C402.2,437.7 402.6,437.5 402.7,437.2 L404.5,431.8 C404.6,431.4 404.4,431 404.1,430.9 L401.5,430 C401.1,429.9 400.7,430.1 400.6,430.4 L398.8,435.8 C398.7,436.2 398.9,436.6 399.2,436.7 Z" id="路径" fill="#FFFFFF" fill-rule="nonzero"></path>
                <path d="M261.9,301.9 L282,309.8" id="路径" stroke="#000000" stroke-width="2"></path>
                <path d="M433.2,351.8 L424.3,316.9 C423.6,314.1 425.3,311.3 428.1,310.6 L448,305.5 C450.8,304.8 453.6,306.5 454.3,309.3 L463.2,344.2 C463.9,347 462.2,349.8 459.4,350.5 L439.5,355.6 C436.7,356.3 433.9,354.6 433.2,351.8 Z" id="路径" stroke="#000000" stroke-width="2"></path>
                <path d="M429.1,330.6 L455.7,324.9" id="路径" stroke="#000000" stroke-width="2"></path>
                <path d="M439.3,317.8 L441.8,327.7" id="路径" stroke="#000000" stroke-width="2"></path>
                <path d="M429,282.4 C428.5,291.7 436.7,297.9 435.6,308.7" id="路径" stroke="#000000" stroke-width="2"></path>
                <path d="M203.2,406.8 L216.1,414.7" id="路径" stroke="#FFFFFF" stroke-width="2"></path>
                <path d="M217.1,417.3 C217.1,417.3 218.2,421.4 221.6,423.3 C225,425.2 234.6,431 234.6,431" id="路径" stroke="#FFFFFF" stroke-width="2"></path>
                <path d="M314,337.1 L422.5,394.8" id="路径" stroke="#FFFFFF" stroke-width="2"></path>
                <path d="M381.6,280.1 L369.8,278.2 C368.1,277.9 367,276.4 367.3,274.7 L373.7,234.4 C374,232.7 375.5,231.6 377.2,231.9 L389,233.8 C390.7,234.1 391.8,235.6 391.5,237.3 L385.1,277.6 C384.8,279.2 383.2,280.3 381.6,280.1 Z" id="路径" stroke="#000000" stroke-width="2" fill="#DE7B4B" fill-rule="nonzero"></path>
                <path d="M368.1,270.4 L385.6,273.2" id="路径" stroke="#000000" stroke-width="2"></path>
                <path d="M375.7,279.1 L374.8,284.5" id="路径" stroke="#000000" stroke-width="2"></path>
                <path d="M383,232.9 L384.3,225" id="路径" stroke="#000000" stroke-width="2"></path>
                <circle id="椭圆形" stroke="#000000" stroke-width="1.99994" fill="#FED37C" fill-rule="nonzero" transform="translate(384.722820, 221.809060) rotate(-80.978522) translate(-384.722820, -221.809060) " cx="384.72282" cy="221.80906" r="3.599892"></circle>
                <path d="M378.8,236.6 C378.8,236.6 375.8,238.1 375.2,241.7 C372.7,257.4 372.7,257.4 370.8,269.5" id="路径" stroke="#FFFFFF"></path>
            </g>
        </g>
    </g>
</svg>