<?xml version="1.0" standalone="no"?><!DOCTYPE svg PUBLIC "-//W3C//DTD SVG 1.1//EN" "http://www.w3.org/Graphics/SVG/1.1/DTD/svg11.dtd"><svg t="1629468513811" class="icon" viewBox="0 0 1024 1024" version="1.1" xmlns="http://www.w3.org/2000/svg" p-id="3282" width="48" height="48" xmlns:xlink="http://www.w3.org/1999/xlink"><defs><style type="text/css"></style></defs><path d="M502.224 188.576c12.528-11.232 22.112-16.208 36.832-9.632 13.792 6.16 16.864 15.728 18.192 32.224 0.576 7.056 0.672 13.504 0.672 33.344v519.088c0 19.808-0.096 26.32-0.672 33.408-1.312 16.416-4.352 25.936-17.92 32.208-14.736 6.816-24.496 1.84-37.056-9.36-5.184-4.624-10.176-9.76-22.208-22.672l-165.024-144.64-1.744-1.696a18.912 18.912 0 0 0-13.824-6.048h-77.76c-22.24 0-26.928-0.576-36.24-10.208-9.072-9.36-9.472-13.024-9.472-35.856V410.832c0-23.632 0.352-27.04 8.896-36.416 5.856-6.416 12.864-9.2 21.104-10.208 3.904-0.48 6.64-0.528 15.072-0.528h78.4c5.216 0 10.224-2.192 13.824-6.064l1.76-1.68 165.008-144.656c12.208-13.12 17.024-18.08 22.16-22.704z m-154.72 202.736a66.896 66.896 0 0 1-48.032 20.368H224V596.8h75.472c18.112 0 35.424 7.36 48.016 20.352L509.92 759.52V248.944l-162.432 142.368zM660.16 626.128l-14.368-14.24c-10.496-8.464-1.28-16.48 2.016-20.688a136.752 136.752 0 0 0 29.056-84.528 136.752 136.752 0 0 0-26.72-81.472c-4.064-5.472-12.272-17.12-1.296-27.616l9.824-9.808c11.664-10.24 19.952-3.744 23.584 0.64a184.752 184.752 0 0 1 42.608 118.256c0 44.352-15.68 86.288-43.488 119.328-3.216 3.808-9.408 10.144-21.216 0.128z m77.696 79.536l-11.84-11.856c-12.544-11.312-3.36-18.848 0.24-22.928a247.68 247.68 0 0 0 61.92-164.208c0-61.024-22.048-118.496-61.12-163.296-3.92-4.496-13.232-12.688-1.76-23.728l10.944-11.008c12.72-11.36 20.272-4.352 24.032-0.16a295.68 295.68 0 0 1 75.904 198.192 295.68 295.68 0 0 1-76.016 198.32c-3.616 4.032-10.304 11.84-22.304 0.672z" p-id="3283" fill="#333333"></path></svg>