<?xml version="1.0" encoding="UTF-8"?>
<svg width="36px" height="36px" viewBox="0 0 36 36" version="1.1" xmlns="http://www.w3.org/2000/svg" xmlns:xlink="http://www.w3.org/1999/xlink">
    <!-- Generator: Sketch 49.1 (51147) - http://www.bohemiancoding.com/sketch -->
    <title>icon-wechat</title>
    <desc>Created with Sketch.</desc>
    <defs></defs>
    <g id="Page-1" stroke="none" stroke-width="1" fill="none" fill-rule="evenodd">
        <g id="规范" transform="translate(-180.000000, -180.000000)">
            <g id="icon-wechat" transform="translate(180.000000, 180.000000)">
                <rect id="Rectangle-2" fill="#46AF35" x="0" y="0" width="36" height="36" rx="2"></rect>
                <path d="M15.51,20.6852793 C15.51,24.0374235 18.755,26.7545933 22.756,26.7545933 C23.5734329,26.7557512 24.3867751,26.6390436 25.171,26.4080615 L27.789,27.7451133 L27.089,25.548242 L27.155,25.5061774 C28.884,24.397476 29.999,22.6512964 29.999,20.6847785 C29.999,17.3341367 26.7555,14.6169669 22.7555,14.6169669 C18.755,14.6179684 15.51,17.3346374 15.51,20.6852793 Z M24.2595,18.5950717 C24.2595,18.0512371 24.7145,17.6100601 25.276,17.6100601 C25.839,17.6100601 26.2935,18.0517379 26.2935,18.5950717 C26.2935,19.1409093 25.8385,19.5830879 25.276,19.5830879 C24.7145,19.5830879 24.2595,19.1404085 24.2595,18.5950717 Z M19.217,18.5950717 C19.217,18.0512371 19.673,17.6100601 20.2345,17.6100601 C20.7965,17.6100601 21.252,18.0517379 21.252,18.5950717 C21.252,19.1409093 20.7965,19.5830879 20.2345,19.5830879 C19.673,19.5830879 19.217,19.1404085 19.217,18.5950717 Z M22.691,14.0851508 C22.8125,14.0851508 22.932,14.0866531 23.0515,14.0931631 C22.42,10.6463736 18.8655,8.00882604 14.5755,8.00882604 C9.83899999,8.00882604 6,11.2247612 6,15.1918491 C6,17.5179187 7.31950001,19.5855917 9.36649999,20.8981059 L9.44500001,20.9481828 L8.61649999,23.5471712 L11.7165,21.9657443 L11.8625,22.0078089 C12.9322928,22.3040455 14.0434962,22.4217996 15.1515,22.3563437 C14.9717852,21.8029121 14.879835,21.2246784 14.879,20.642714 C14.8795,17.0211564 18.378,14.0851508 22.691,14.0851508 Z M17.5605,11.5507615 C18.2255,11.5507615 18.764,12.073063 18.764,12.7180528 C18.764,13.3625419 18.2255,13.8863457 17.5605,13.8863457 C16.8945,13.8863457 16.3565,13.3630426 16.3565,12.7180528 C16.356,12.0725622 16.8945,11.5507615 17.5605,11.5507615 Z M11.5915,13.8858449 C10.926,13.8858449 10.3875,13.3625419 10.3875,12.717552 C10.3875,12.0725622 10.9265,11.5502607 11.5915,11.5502607 C12.257,11.5502607 12.797,12.0725622 12.797,12.717552 C12.797,13.3625418 12.257,13.8858449 11.5915,13.8858449 Z" id="Shape" fill="#FFFFFF" fill-rule="nonzero"></path>
            </g>
        </g>
    </g>
</svg>