<?xml version="1.0" encoding="UTF-8"?>
<svg width="36px" height="36px" viewBox="0 0 36 36" version="1.1" xmlns="http://www.w3.org/2000/svg" xmlns:xlink="http://www.w3.org/1999/xlink">
    <!-- Generator: Sketch 49.1 (51147) - http://www.bohemiancoding.com/sketch -->
    <title>icon-weibo</title>
    <desc>Created with Sketch.</desc>
    <defs></defs>
    <g id="Page-1" stroke="none" stroke-width="1" fill="none" fill-rule="evenodd">
        <g id="规范" transform="translate(-240.000000, -180.000000)">
            <g id="icon-weibo" transform="translate(240.000000, 180.000000)">
                <rect id="Rectangle-2" fill="#D62629" x="0" y="0" width="36" height="36" rx="2"></rect>
                <path d="M15.9556393,22.4061701 C15.7528373,22.4126764 15.5730129,22.5888485 15.5455397,22.8035582 C15.5200646,23.0167664 15.6584295,23.1879335 15.86273,23.1849306 C16.0705271,23.1814272 16.2583437,23.0002503 16.2848178,22.7820371 C16.3062968,22.5643245 16.1584412,22.3946588 15.9556393,22.4061701 Z M14.5754871,22.6504086 C13.9510968,22.6799375 13.385649,23.2254702 13.3042285,23.8836129 C13.2193114,24.5457595 13.6593817,25.0767781 14.2882676,25.0657673 C14.9261446,25.0557576 15.5140705,24.4957106 15.5919944,23.8200508 C15.6619261,23.1428895 15.2088685,22.6238827 14.5754871,22.6504086 Z" id="Shape" fill="#D62629" fill-rule="nonzero"></path>
                <path d="M24.9463593,21.8195973 C24.6606383,18.826174 20.6415631,16.7631593 15.9691261,17.2110968 C11.296689,17.6590342 7.74066171,20.4482581 8.02638267,23.4421818 C8.31260315,26.4356051 12.3316783,28.4991202 17.0041153,28.0511828 C21.6765524,27.6027449 25.2325797,24.813521 24.9463593,21.8195973 Z M19.0661017,22.9797302 C18.853809,24.9276324 16.9766422,26.5301975 14.9486227,26.5216891 C12.9910344,26.5141818 11.6808139,24.9972004 11.9560451,23.166913 C12.2262812,21.3716598 13.9341134,19.8616853 15.8362558,19.7595855 C17.8043339,19.649478 19.2783944,21.072868 19.0661017,22.9797302 Z" id="Shape" fill="#D62629" fill-rule="nonzero"></path>
                <path d="M30.9320139,13.3783539 C30.1432842,8.96254154 26.6392061,7.18981035 24.2110773,7.02064516 C23.7545232,6.97660216 23.3304373,7.25237145 23.2674988,7.69430304 C23.2070578,8.12422287 23.5142578,8.55214076 23.9398422,8.63972629 C25.528291,8.9910694 28.5338559,9.45452199 29.3290793,13.9358983 C29.3985114,14.3903421 29.7721466,14.8748152 30.3370949,14.751695 C30.750691,14.6601056 31.12033,14.4298808 30.9320139,13.3783539 Z M23.8674129,12.1446491 C23.5799095,12.0962102 23.302219,12.2727773 23.2235417,12.5540489 C23.1311319,12.8623499 23.3014656,13.2151945 23.6141602,13.2807585 C24.2785114,13.4198944 24.6036939,13.8788426 24.7000997,14.3683206 C24.7000997,14.3683206 24.7850168,14.7001447 25.1042051,14.7917341 C25.4164002,14.8813216 25.9803495,14.6500958 25.818008,14.0339941 C25.6566656,13.1956755 24.8249778,12.2952962 23.8674129,12.1446491 Z" id="Shape" fill="#FFFFFF" fill-rule="nonzero"></path>
                <path d="M24.2715183,9.77833823 C23.5741993,9.65772045 23.255011,10.1587097 23.255011,10.5586002 C23.255011,10.9579902 23.5397329,11.2462717 24.0652197,11.392915 C25.4608568,11.7807937 26.3569817,12.3938925 26.6027417,14.0129736 C26.674172,14.4829326 27.1027534,14.7336774 27.4139495,14.7336774 C27.8340393,14.7336774 28.1742071,14.3923441 28.1742071,13.9719335 C28.1742071,13.9564184 28.1727085,13.9409032 28.1717095,13.9258886 L28.1757056,13.9248876 C27.9099651,11.8478592 26.3564822,10.1391906 24.2715183,9.77833823 Z" id="Shape" fill="#FFFFFF" fill-rule="nonzero"></path>
                <path d="M24.1301563,22.3776422 C23.84993,25.2879844 19.7084744,27.61826 15.2173602,27.5036481 C11.0554246,27.4005474 8.28213292,25.2049032 8.74168414,22.6574154 C9.18974658,20.182999 12.5914246,18.0444106 16.5925173,17.8076794 C20.8903202,17.5539316 24.4033895,19.5573881 24.1301563,22.3776422 Z M23.4752959,17.7135875 C23.3094578,17.7180919 23.2395261,17.737611 23.2145505,17.6780528 C23.1940705,17.6295054 23.2185466,17.5764536 23.3079593,17.3502327 C23.5572158,16.7201173 23.953329,15.4248524 23.1386246,14.7021466 C22.6011495,14.2251808 20.3253719,13.8613255 17.9272139,15.5279531 C17.8078305,15.6110342 17.6140197,15.7882072 17.5161154,15.7556755 C17.4082207,15.7191398 17.3852432,15.6025259 17.3707573,15.3823109 C17.2923339,14.1951515 18.2888607,10.8959296 15.718371,11.169697 C12.9860393,11.6331496 9.29963926,15.9593744 8.24616804,18.0519179 C4.50731926,25.4761681 9.91403926,28.5011222 15.2028744,28.6592766 C20.940771,28.8289423 26.7535944,25.5647547 27.517848,21.1979902 C28.02785,18.2831437 24.6031944,17.688563 23.4752959,17.7135875 Z" id="Shape" fill="#FFFFFF" fill-rule="nonzero"></path>
                <path d="M15.8362558,19.7595855 C13.9341134,19.8621857 12.2262812,21.3716598 11.9560451,23.166913 C11.6813134,24.9972004 12.9910344,26.5141818 14.9486227,26.5216891 C16.9766422,26.5301975 18.853809,24.9276324 19.0661017,22.9797302 C19.2783944,21.072868 17.8043339,19.649478 15.8362558,19.7595855 Z M15.5919944,23.8200508 C15.5140705,24.4957107 14.9261446,25.0552571 14.2882676,25.0657673 C13.6588822,25.0767781 13.2188119,24.5457595 13.3042285,23.8836129 C13.385649,23.2254702 13.9510968,22.6799374 14.5754871,22.6504086 C15.2088685,22.6238827 15.6619261,23.1428895 15.5919944,23.8200508 Z M15.86273,23.1844301 C15.658929,23.187433 15.5205642,23.0162659 15.5455397,22.8030577 C15.5730129,22.5888485 15.7528373,22.412176 15.9556393,22.4056696 C16.1579417,22.3941584 16.3062968,22.563824 16.2848178,22.7810362 C16.2583436,22.9997498 16.0705271,23.1809267 15.86273,23.1844301 Z" id="Shape" fill="#FFFFFF" fill-rule="nonzero"></path>
            </g>
        </g>
    </g>
</svg>