<?xml version="1.0" encoding="UTF-8"?>
<svg width="36px" height="36px" viewBox="0 0 36 36" version="1.1" xmlns="http://www.w3.org/2000/svg" xmlns:xlink="http://www.w3.org/1999/xlink">
    <!-- Generator: Sketch 49.1 (51147) - http://www.bohemiancoding.com/sketch -->
    <title>icon-Google+</title>
    <desc>Created with Sketch.</desc>
    <defs></defs>
    <g id="Page-1" stroke="none" stroke-width="1" fill="none" fill-rule="evenodd">
        <g id="规范" transform="translate(-300.000000, -180.000000)">
            <g id="icon-Google+" transform="translate(300.000000, 180.000000)">
                <rect id="Rectangle-2" fill="#DE3A2F" x="0" y="0" width="36" height="36" rx="2"></rect>
                <path d="M12.880658,16.2062751 L12.880658,19.7761296 L17.6906137,19.7761296 C16.9340694,22.0905735 15.7680196,23.345984 12.880658,23.345984 C11.4860675,23.3424111 10.1510517,22.7742947 9.17409682,21.7686557 C8.19714195,20.7630167 7.65973077,19.4037302 7.68201907,17.9947091 C7.65973078,16.5856879 8.19714195,15.2264015 9.17409683,14.2207625 C10.1510517,13.2151235 11.4860675,12.6470071 12.880658,12.6434342 C14.1604271,12.6186924 15.401428,13.0876878 16.3510445,13.9549524 C17.0798257,13.211525 17.0451218,13.106323 18.8844266,11.331916 C15.9378581,8.63559683 11.5795544,8.23928836 8.20393347,10.3607193 C4.82831254,12.4821503 3.25304296,16.6074516 4.34356555,20.4702148 C5.43408814,24.3329781 8.92624824,26.9975355 12.9014803,27 C20.2239958,26.9929865 22.0285968,20.519557 21.4247495,16.2062751 L12.880658,16.2062751 Z M28.9069028,16.3816118 L28.9069028,13.2606192 L26.7066778,13.2606192 L26.7066778,16.3816118 L23.5347445,16.3816118 L23.5347445,18.6118941 L26.7066778,18.6118941 L26.7066778,21.8240618 L28.9069028,21.8240618 L28.9069028,18.6118941 L31.988606,18.6118941 L31.988606,16.3816118 L28.9069028,16.3816118 Z" id="Shape" fill="#FFFFFF" fill-rule="nonzero"></path>
            </g>
        </g>
    </g>
</svg>