<?xml version="1.0" encoding="UTF-8"?>
<svg width="14px" height="14px" viewBox="0 0 14 14" version="1.1" xmlns="http://www.w3.org/2000/svg" xmlns:xlink="http://www.w3.org/1999/xlink">
    <!-- Generator: Sketch 49.1 (51147) - http://www.bohemiancoding.com/sketch -->
    <title>icon-五星好评</title>
    <desc>Created with Sketch.</desc>
    <defs></defs>
    <g id="Page-1" stroke="none" stroke-width="1" fill="none" fill-rule="evenodd">
        <g id="通用设置模块" transform="translate(-568.000000, -449.000000)" fill="#E6E6E6" fill-rule="nonzero">
            <g id="icon-五星好评" transform="translate(568.000000, 449.000000)">
                <path d="M7.89747899,0 C7.14117647,0 6.48235294,0.515966387 6.34285714,1.24705882 C6.34285714,1.24705882 6.11764706,2.39159664 6,2.80336134 C5.80672269,3.48235294 5.12941176,4.23193277 4.64033613,4.47226891 C4.27058824,4.65546218 2.89747899,4.65714286 2.81176471,4.65714286 L0.944537815,4.65714286 C0.430252101,4.65714286 0.0117647059,5.07394958 0.0117647059,5.58991597 L0.0117647059,13.0521008 C0.0117647059,13.5663866 0.428571429,13.9848739 0.944537815,13.9848739 L9.55462185,13.9848739 C10.9394958,13.9848739 12.1159664,12.9714286 12.3210084,11.6016807 L13.0420168,6.79831933 C13.2117647,5.67058824 12.3378151,4.65714286 11.1966387,4.65714286 L9.07394958,4.65714286 C9.07394958,4.65714286 9.38823529,3.61344538 9.54957983,1.85042017 C9.6302521,0.957983193 8.99663866,0.105882353 8.06890756,0.0100840336 C8.01176471,0.00336134454 7.95462185,4.77675789e-16 7.89747899,4.77675789e-16 Z M0.944537815,13.0504202 L0.944537815,5.58823529 L2.80840336,5.58823529 L2.80840336,13.0504202 L0.944537815,13.0504202 Z" id="Shape"></path>
            </g>
        </g>
    </g>
</svg>