<?xml version="1.0" encoding="UTF-8"?>
<svg width="36px" height="36px" viewBox="0 0 36 36" version="1.1" xmlns="http://www.w3.org/2000/svg" xmlns:xlink="http://www.w3.org/1999/xlink">
    <!-- Generator: Sketch 49.1 (51147) - http://www.bohemiancoding.com/sketch -->
    <title>icon-qzone</title>
    <desc>Created with Sketch.</desc>
    <defs></defs>
    <g id="Page-1" stroke="none" stroke-width="1" fill="none" fill-rule="evenodd">
        <g id="规范" transform="translate(-360.000000, -180.000000)">
            <g id="icon-qzone" transform="translate(360.000000, 180.000000)">
                <rect id="Rectangle-2" fill="#F5BD3E" x="0" y="0" width="36" height="36" rx="2"></rect>
                <path d="M20.732518,14.5719411 C20.732518,14.5719411 18.1246749,8 17.4944228,8 C16.8641708,8 14.2563277,14.5719411 14.2563277,14.5719411 C14.2563277,14.5719411 7.23672002,15.0672017 7.00702814,15.6264567 C6.77733625,16.1857116 12.2535266,20.743222 12.2535266,20.743222 C12.2535266,20.743222 10.6400813,27.6629585 11.0154314,27.9773655 C11.3907815,28.2917725 17.4944228,24.5550591 17.4944228,24.5550591 C17.4944228,24.5550592 23.547644,28.3975023 23.9734143,27.966236 C24.2815376,27.6546114 23.4972238,24.0458867 23.0378401,22.0509325 C23.2602948,21.9595679 23.4923743,21.8933035 23.7297168,21.8533848 C23.9445785,21.8144083 24.1511199,21.7391208 24.3403611,21.6307957 C24.3403611,21.6307957 22.8809774,21.9563322 18.6008654,22.0509325 C14.3207534,22.1455329 13.1162717,21.9285086 13.1162717,21.9285086 L19.1470839,17.4349925 C19.1470839,17.4349925 17.2731343,17.0927619 15.8473641,16.9619908 C13.8137507,16.7783549 12.029437,16.7811372 12.2507255,16.72549 C13.9879345,16.5009407 15.741071,16.4218286 17.4916217,16.4889891 C18.9623506,16.5550653 20.427433,16.713045 21.8781763,16.9619908 L15.8501652,21.2690886 C15.8501652,21.2690886 17.1666918,21.4722011 18.2619298,21.5139365 C20.3459634,21.594625 22.8865796,21.5361954 22.8809774,21.5139365 C22.802546,21.1828353 22.7353191,20.743222 22.7353191,20.743222 C22.7353191,20.743222 28.1694926,16.1829292 27.9762153,15.6264567 C27.782938,15.0699841 20.732518,14.5719411 20.732518,14.5719411 Z" id="Shape" fill="#FFFFFF" fill-rule="nonzero"></path>
            </g>
        </g>
    </g>
</svg>