<?xml version="1.0" encoding="UTF-8"?>
<svg width="36px" height="36px" viewBox="0 0 36 36" version="1.1" xmlns="http://www.w3.org/2000/svg" xmlns:xlink="http://www.w3.org/1999/xlink">
    <!-- Generator: Sketch 49.1 (51147) - http://www.bohemiancoding.com/sketch -->
    <title>icon-twitter</title>
    <desc>Created with Sketch.</desc>
    <defs></defs>
    <g id="Page-1" stroke="none" stroke-width="1" fill="none" fill-rule="evenodd">
        <g id="规范" transform="translate(-120.000000, -180.000000)">
            <g id="icon-twitter" transform="translate(120.000000, 180.000000)">
                <rect id="Rectangle-2" fill="#69ACE0" x="0" y="0" width="36" height="36" rx="2"></rect>
                <path d="M31,10.3839488 C30.1013432,10.7914371 29.1481005,11.0588969 28.172,11.1774261 C29.200271,10.5479235 29.9697456,9.55732854 30.337,8.39027978 C29.3705657,8.97720685 28.3131624,9.39073279 27.2105,9.61298161 C26.2793309,8.59626417 24.9777921,8.02015914 23.616,8.02193446 C20.897,8.02193446 18.692,10.277538 18.692,13.0595683 C18.692,13.4545164 18.7355,13.8392326 18.8195,14.2075779 C14.7275,13.9978257 11.0995,11.9923901 8.671,8.94382094 C8.23293118,9.71259548 8.0027192,10.5868093 8.00399999,11.4767066 C8.00266475,13.1614381 8.82475938,14.735262 10.1945,15.6702158 C9.41267716,15.645099 8.64806832,15.4289925 7.9645,15.039936 L7.96400001,15.1033733 C7.96400001,17.5441727 9.661,19.5808153 11.914,20.0432934 C11.18878,20.2450619 10.4280925,20.2746339 9.68999999,20.1297522 C10.3348824,22.1820909 12.1834133,23.5880872 14.29,23.6285212 C12.5459275,25.0291347 10.392118,25.7888207 8.17499999,25.7853877 C7.777,25.7853877 7.38499998,25.7613429 7,25.7147882 C9.251442,27.1950524 11.8718081,27.9807725 14.548,27.9780655 C23.6045,27.9780655 28.5575,20.3016467 28.5575,13.643805 C28.5575,13.4253557 28.5525,13.2084412 28.543,12.9920384 C29.506987,12.2789982 30.3390055,11.395816 31,10.3839488 Z" id="Shape" fill="#FFFFFF" fill-rule="nonzero"></path>
            </g>
        </g>
    </g>
</svg>