<svg class="icon" style="width: 1em; height: 1em;vertical-align: middle;fill: currentColor;overflow: hidden;color:green;" viewBox="0 0 1024 1024" version="1.1" xmlns="http://www.w3.org/2000/svg" p-id="4279"><path d="M170.666667 802.133333H34.133333c-10.24 0-17.066667 6.826667-17.066666 17.066667v170.666667c0 10.24 6.826667 17.066667 17.066666 17.066666h136.533334c10.24 0 17.066667-6.826667 17.066666-17.066666v-170.666667c0-10.24-6.826667-17.066667-17.066666-17.066667zM375.466667 631.466667H238.933333c-10.24 0-17.066667 6.826667-17.066666 17.066666v341.333334c0 10.24 6.826667 17.066667 17.066666 17.066666h136.533334c10.24 0 17.066667-6.826667 17.066666-17.066666V648.533333c0-10.24-6.826667-17.066667-17.066666-17.066666zM580.266667 392.533333h-136.533334c-10.24 0-17.066667 6.826667-17.066666 17.066667v580.266667c0 10.24 6.826667 17.066667 17.066666 17.066666h136.533334c10.24 0 17.066667-6.826667 17.066666-17.066666V409.6c0-10.24-6.826667-17.066667-17.066666-17.066667zM785.066667 187.733333h-136.533334c-10.24 0-17.066667 6.826667-17.066666 17.066667v785.066667c0 10.24 6.826667 17.066667 17.066666 17.066666h136.533334c10.24 0 17.066667-6.826667 17.066666-17.066666V204.8c0-10.24-6.826667-17.066667-17.066666-17.066667zM989.866667 17.066667h-136.533334c-10.24 0-17.066667 6.826667-17.066666 17.066666v955.733334c0 10.24 6.826667 17.066667 17.066666 17.066666h136.533334c10.24 0 17.066667-6.826667 17.066666-17.066666V34.133333c0-10.24-6.826667-17.066667-17.066666-17.066666z" fill="" p-id="4280"></path></svg>