<svg width="50" height="50" viewBox="0 0 50 50" fill="none" xmlns="http://www.w3.org/2000/svg">
<path fill-rule="evenodd" clip-rule="evenodd" d="M24.1357 21.7688C24.646 21.7688 24.9709 21.6913 25.168 21.6087C25.4312 21.486 25.5783 21.3583 25.6667 21.2509L25.6777 21.2376L25.6889 21.2244C25.8103 21.0821 25.9128 20.9008 25.984 20.6489C26.0757 20.3243 26.1247 19.976 26.1247 19.5975C26.1247 19.1534 26.0625 18.7988 25.9654 18.5138L25.9614 18.5017C25.868 18.2218 25.7442 18.0256 25.6046 17.8773L25.5947 17.8668L25.585 17.8561C25.46 17.7195 25.2788 17.5852 24.9917 17.4739L24.9787 17.4687C24.7363 17.3728 24.3664 17.2934 23.8199 17.2934C23.321 17.2934 22.9538 17.3499 22.6913 17.4274L22.6768 17.4317L22.6622 17.4358C22.2661 17.5463 21.959 17.6603 21.7269 17.7691C21.4105 17.9173 21.1734 18.039 21.0043 18.1349C20.8432 18.2305 20.6547 18.3311 20.4491 18.4133C20.2573 18.49 19.9169 18.6062 19.4986 18.6062C19.1245 18.6062 18.7446 18.5234 18.3882 18.3453L18.3195 18.3109L18.2536 18.2714C17.7416 17.9642 17.4745 17.5288 17.3442 17.2681L17.3238 17.2274L17.3054 17.1859C17.1613 16.8619 17.0913 16.5398 17.0533 16.2742L17.052 16.265L17.0508 16.2557C17.013 15.9724 17 15.6728 17 15.3764C17 15.0744 17.0147 14.6832 17.1053 14.3106C17.2298 13.7867 17.502 13.3229 17.891 12.9599C18.2186 12.6457 18.6336 12.4057 18.9428 12.2397C19.397 11.9902 19.8975 11.7849 20.4262 11.6131L20.4331 11.6109L20.4399 11.6087C20.9811 11.4371 21.5539 11.2965 22.155 11.1838L22.1623 11.1825C22.8295 11.0599 23.5101 11 24.2022 11C25.5689 11 26.851 11.1964 27.9967 11.6556C29.0767 12.0778 30.0328 12.6805 30.8128 13.4916C31.5741 14.2833 32.135 15.2127 32.493 16.2566C32.8343 17.252 33 18.292 33 19.3649C33 20.5264 32.8352 21.6314 32.4616 22.6476C32.1015 23.627 31.5798 24.5068 30.88 25.2531C30.1847 25.9947 29.3548 26.5666 28.4138 26.9698C28.0371 27.1313 27.6489 27.2637 27.2505 27.3687L27.1825 29.7096C27.1741 30.2001 27.0153 30.6828 26.7063 31.091C26.7524 31.1335 26.7976 31.1781 26.8419 31.2248C27.3196 31.7169 27.533 32.3043 27.6258 32.7965C27.7173 33.2214 27.7479 33.6692 27.7479 34.1055C27.7479 34.5471 27.7165 35.0005 27.6224 35.43C27.5201 35.9385 27.3022 36.4538 26.9173 36.9028L26.8934 36.9308L26.8684 36.9578C26.4279 37.435 25.8868 37.6997 25.3706 37.8318C24.9178 37.9602 24.4519 38 24.0194 38C23.5761 38 23.0905 37.9622 22.6245 37.8289C22.111 37.693 21.6106 37.4335 21.1925 37.0155L21.1382 36.9611L21.0882 36.9028C20.7156 36.4681 20.495 35.9721 20.3785 35.4828L20.366 35.4304L20.3564 35.3773C20.2831 34.9743 20.2576 34.5402 20.2576 34.1055C20.2576 33.6707 20.2831 33.2367 20.3564 32.8337L20.3625 32.8L20.3698 32.7666C20.4763 32.2766 20.7025 31.6855 21.1925 31.1955L21.2035 31.1846C21.1594 31.13 21.1166 31.072 21.0756 31.0105C20.7951 30.5898 20.6785 30.1285 20.6733 29.6983L20.5743 25.1279C20.5603 24.7723 20.5756 24.3368 20.7002 23.9006L20.7122 23.8589L20.7259 23.8176C20.8519 23.4398 21.0612 23.0314 21.4055 22.674C21.7822 22.2717 22.2513 22.0158 22.7479 21.8959C23.098 21.8026 23.445 21.7688 23.7701 21.7688H24.1357ZM25.1704 23.6796C25.2025 23.6735 25.2344 23.6672 25.266 23.6605C25.5236 23.6062 25.7618 23.5315 25.9806 23.4364C26.4903 23.2038 26.9003 22.8991 27.2105 22.5224C27.5319 22.1457 27.7645 21.7026 27.9086 21.1929C28.0526 20.6833 28.1247 20.1515 28.1247 19.5975C28.1247 18.966 28.036 18.3899 27.8587 17.8692C27.6814 17.3374 27.4155 16.8832 27.0609 16.5065C26.7064 16.1187 26.2576 15.8196 25.7147 15.6091C25.1828 15.3986 24.5512 15.2934 23.8199 15.2934C23.1773 15.2934 22.6122 15.3654 22.1247 15.5094C21.6482 15.6423 21.2327 15.7919 20.8781 15.9581C20.5235 16.1243 20.2299 16.2738 19.9972 16.4068C19.7756 16.5397 19.6094 16.6062 19.4986 16.6062C19.4211 16.6062 19.349 16.5896 19.2825 16.5564C19.2271 16.5231 19.1773 16.4622 19.133 16.3736C19.0886 16.2738 19.0554 16.1464 19.0332 15.9913C19.0111 15.8251 19 15.6202 19 15.3764C19 15.1334 19.0139 14.9459 19.0417 14.814C19.043 14.8076 19.0443 14.8014 19.0457 14.7953C19.0471 14.7895 19.0485 14.7838 19.0499 14.7782L19.0549 14.7576C19.0639 14.7232 19.0751 14.6901 19.0886 14.6583C19.0955 14.6421 19.1031 14.6261 19.1112 14.6106C19.1494 14.537 19.201 14.471 19.2659 14.4126C19.3767 14.3018 19.5873 14.1633 19.8975 13.9971C20.2188 13.8198 20.6011 13.6592 21.0443 13.5152C21.4986 13.3711 21.9917 13.2493 22.5235 13.1496C23.0665 13.0499 23.626 13 24.2022 13C25.3878 13 26.4072 13.1717 27.2604 13.5152C28.1136 13.8475 28.8172 14.3018 29.3712 14.8779C29.9252 15.454 30.3352 16.1298 30.6011 16.9053C30.867 17.6809 31 18.5007 31 19.3649C31 20.3398 30.8615 21.204 30.5845 21.9574C30.3075 22.7107 29.9197 23.3533 29.4211 23.8851C28.9224 24.4169 28.3241 24.8324 27.626 25.1315C26.9969 25.4011 26.3047 25.5717 25.5495 25.6433C25.4668 25.6512 25.3834 25.6578 25.2992 25.6633L25.1828 29.6684C25.1828 29.8345 25.0831 29.9619 24.8837 30.0506C24.6953 30.1281 24.385 30.1669 23.9529 30.1669C23.7202 30.1669 23.5208 30.1614 23.3546 30.1503C23.1884 30.1281 23.0554 30.1004 22.9557 30.0672C22.856 30.0229 22.7839 29.9675 22.7396 29.901C22.6953 29.8345 22.6731 29.757 22.6731 29.6684L22.5734 25.065C22.5623 24.8102 22.5789 24.6053 22.6233 24.4501C22.6787 24.284 22.7562 24.151 22.856 24.0513C22.9557 23.9405 23.0831 23.8685 23.2382 23.8353C23.275 23.8248 23.313 23.8155 23.3522 23.8075C23.4786 23.7817 23.6179 23.7688 23.7701 23.7688H24.1357C24.5089 23.7688 24.8537 23.739 25.1704 23.6796ZM22.6066 32.6098C22.7507 32.4658 22.9335 32.3661 23.1551 32.3107C23.3767 32.2442 23.6648 32.211 24.0194 32.211C24.3518 32.211 24.6288 32.2442 24.8504 32.3107C25.0831 32.3661 25.2659 32.4658 25.3989 32.6098C25.5319 32.7428 25.6205 32.9367 25.6648 33.1915C25.7202 33.4352 25.7479 33.7399 25.7479 34.1055C25.7479 34.4711 25.7202 34.7758 25.6648 35.0195C25.6205 35.2522 25.5319 35.4461 25.3989 35.6012C25.2659 35.7452 25.0831 35.8449 24.8504 35.9003C24.6288 35.9668 24.3518 36 24.0194 36C23.6648 36 23.3767 35.9668 23.1551 35.9003C22.9335 35.8449 22.7507 35.7452 22.6066 35.6012C22.4737 35.4461 22.3795 35.2522 22.3241 35.0195C22.2798 34.7758 22.2576 34.4711 22.2576 34.1055C22.2576 33.7399 22.2798 33.4352 22.3241 33.1915C22.3795 32.9367 22.4737 32.7428 22.6066 32.6098Z" fill="#FF8A8A"/>
<path fill-rule="evenodd" clip-rule="evenodd" d="M25 50C38.8071 50 50 38.8071 50 25C50 11.1929 38.8071 0 25 0C11.1929 0 0 11.1929 0 25C0 38.8071 11.1929 50 25 50ZM25 48C37.7025 48 48 37.7025 48 25C48 12.2975 37.7025 2 25 2C12.2975 2 2 12.2975 2 25C2 37.7025 12.2975 48 25 48Z" fill="#FF8A8A"/>
</svg>
