<svg width="56" height="56" viewBox="0 0 56 56" fill="none" xmlns="http://www.w3.org/2000/svg">
<path d="M8.61263 53.243H47.3885C50.3842 53.2434 53.1645 51.6868 54.7301 49.133C56.2961 46.5793 56.4217 43.3955 55.0626 40.726L35.7041 7.58455C34.2505 4.67649 31.2826 2.83523 28.0314 2.82412C24.7801 2.813 21.7998 4.63375 20.3265 7.53198L0.90951 40.7785C-0.425703 43.4481 -0.28295 46.619 1.28605 49.1582C2.85549 51.6975 5.62764 53.243 8.61263 53.243ZM2.55075 41.6667L21.9678 8.42013C23.1158 6.12539 25.4661 4.68076 28.0318 4.69188C30.5975 4.70299 32.935 6.16856 34.0629 8.47313L53.4218 41.6141C54.4672 43.705 54.3557 46.1882 53.1269 48.1769C51.8977 50.1656 49.7264 51.376 47.3885 51.3756H8.61263C6.28541 51.3752 4.12274 50.1759 2.89011 48.2017C1.65747 46.228 1.52925 43.758 2.55075 41.6667Z" fill="#FFB444"/>
<path d="M28.0006 48.5744C30.5792 48.5744 32.6692 46.4844 32.6692 43.9063C32.6692 41.3278 30.5792 39.2378 28.0006 39.2378C25.4225 39.2378 23.3325 41.3278 23.3325 43.9063C23.3355 46.4831 25.4238 48.5714 28.0006 48.5744ZM28.0006 41.1051C29.5478 41.1051 30.8018 42.3591 30.8018 43.9063C30.8018 45.4531 29.5478 46.7071 28.0006 46.7071C26.4539 46.7071 25.1999 45.4531 25.1999 43.9063C25.2016 42.36 26.4547 41.1068 28.0006 41.1051Z" fill="#FFB444"/>
<path d="M28.0006 37.3704C30.5779 37.3674 32.6662 35.2791 32.6692 32.7019V14.962C32.6692 12.3839 30.5792 10.2939 28.0006 10.2939C25.4225 10.2939 23.3325 12.3839 23.3325 14.962V32.7019C23.3355 35.2791 25.4238 37.3674 28.0006 37.3704ZM25.1999 14.962C25.1999 13.4152 26.4539 12.1612 28.0006 12.1612C29.5478 12.1612 30.8018 13.4152 30.8018 14.962V32.7019C30.8018 34.2491 29.5478 35.5031 28.0006 35.5031C26.4539 35.5031 25.1999 34.2491 25.1999 32.7019V14.962Z" fill="#FFB444"/>
</svg>
