<svg width="56" height="56" viewBox="0 0 56 56" fill="none" xmlns="http://www.w3.org/2000/svg">
<path fill-rule="evenodd" clip-rule="evenodd" d="M44.3338 17.3917C42.8932 16.1028 40.6806 16.2257 39.3917 17.6662L24.8587 33.909L16.4749 25.5252C15.108 24.1583 12.892 24.1583 11.5251 25.5252C10.1583 26.892 10.1583 29.1081 11.5251 30.4749L22.5251 41.4749C23.2053 42.1551 24.1355 42.5254 25.0971 42.4987C26.0587 42.472 26.9669 42.0507 27.6083 41.3338L44.6083 22.3338C45.8973 20.8933 45.7743 18.6806 44.3338 17.3917ZM40.8821 18.9998C41.4345 18.3825 42.3828 18.3298 43.0002 18.8822C43.6176 19.4346 43.6703 20.3828 43.1179 21.0002L26.1179 40.0002C25.843 40.3075 25.4537 40.488 25.0416 40.4994C24.6295 40.5109 24.2309 40.3522 23.9393 40.0607L12.9393 29.0607C12.3536 28.4749 12.3536 27.5252 12.9393 26.9394C13.5251 26.3536 14.4749 26.3536 15.0607 26.9394L24.192 36.0707C24.3863 36.265 24.6521 36.3708 24.9268 36.3632C25.2015 36.3555 25.461 36.2352 25.6443 36.0303L40.8821 18.9998Z" fill="#ADC244"/>
<path fill-rule="evenodd" clip-rule="evenodd" d="M53 28C53 41.8071 41.8071 53 28 53C14.1929 53 3 41.8071 3 28C3 14.1929 14.1929 3 28 3C41.8071 3 53 14.1929 53 28ZM51 28C51 40.7025 40.7025 51 28 51C15.2975 51 5 40.7025 5 28C5 15.2975 15.2975 5 28 5C40.7025 5 51 15.2975 51 28Z" fill="#ADC244"/>
</svg>
